<?xml version="1.0" encoding="utf-8" ?>
<svg baseProfile="full" height="200mm" version="1.1" viewBox="0,0,200,200" width="200mm" xmlns="http://www.w3.org/2000/svg" xmlns:ev="http://www.w3.org/2001/xml-events" xmlns:xlink="http://www.w3.org/1999/xlink"><defs /><rect fill="#1a1a1a" height="200" width="200" x="0" y="0" /><text alignment-baseline="middle" fill="#e1ed5e" style="dominant-baseline: central; font-size:9.0px; font-family:Arial;" text-anchor="middle" x="100.0" y="100.0">2016</text><line stroke="#e1ed5e" stroke-width="0.3" x1="100.0" x2="100.0" y1="15.0" y2="10.0" /><path d="M 100.0 14.0 a86.0,86.0 0 0,1 42.35913384403234,11.155469271406648" fill="none" id="id13" stroke="none" /><text fill="#e1ed5e" style="font-size:6.75px; font-family:Arial;" text-anchor="middle"><textPath startOffset="22.145653131862478" xlink:href="#id13">January</textPath></text><path d="M 100.0 79.0 l 0.0 -57.927032764400224 a78.92703276440022,78.92703276440022 0 0,0 1.354887470994287,0.01163007941325072 l -0.9943945461454323 57.91849708318141" fill="#47fffc" stroke="none" /><path d="M 103.23170211078529 79.25015418208739 l 3.8724549358286264 -24.863938599753276 a46.163691102903094,46.163691102903094 0 0,0 0.7819744508291162,0.12867359830775385 l -4.298706889710813 24.793799002949854" fill="#c4ff1e" stroke="none" /><path d="M 103.94208987418118 79.37332000966035 l 1.7335108520813205 -9.070461290051016 a30.234626570067554,30.234626570067554 0 0,0 0.5089546071989519,0.10180517554488697 l -1.8889619448112294 9.03936671784327" fill="#ff720a" stroke="none" /><path d="M 107.74402155503746 80.48000691201159 l 11.491548163377592 -28.966208206574557 a52.16242765026265,52.16242765026265 0 0,0 0.8294957146324603,0.3373486858412515 l -11.987098339200493 28.76467226415401" fill="#81ff25" stroke="none" /><path d="M 108.4095320186766 80.7573450057729 l 3.4462957052219605 -7.885799009551648 a29.605973513024374,29.605973513024374 0 0,0 0.4639490037403568,0.20751848817997343 l -3.581158111817949 7.8254767704618216" fill="#ff6909" stroke="none" /><line stroke="#e1ed5e" stroke-width="0.3" x1="143.13028292997686" x2="145.6673583964461" y1="26.7553504044142" y2="22.446841604673864" /><path d="M 143.63769802327073 25.89364864446614 a86.0,86.0 0 0,1 29.32050498858742,28.57503671076993" fill="none" id="id14" stroke="none" /><text fill="#e1ed5e" style="font-size:6.75px; font-family:Arial;" text-anchor="middle"><textPath startOffset="20.669276256404974" xlink:href="#id14">February</textPath></text><path d="M 111.27062007382361 82.28071324371311 l 8.20269249179361 -12.895995028108798 a36.28367926514863,36.28367926514863 0 0,0 0.522682585346951,0.3387965369500499 l -8.422860709397566 12.753284649454853" fill="#ffc212" stroke="none" /><path d="M 111.5731344415666 82.4767994020092 l 8.373198236963363 -12.678089336460724 a36.19356435925308,36.19356435925308 0 0,0 0.5155061641358422,0.34685555353972997 l -8.589600689196207 12.532484108863875" fill="#ffc011" stroke="none" /><path d="M 111.8722381534696 82.67804972795209 l 19.23940554287711 -28.07086766365831 a55.03128468092129,55.03128468092129 0 0,0 0.7746437090806869,0.5407614708005725 l -19.71844434313156 27.73646137705261" fill="#63ff29" stroke="none" /><path d="M 112.16784306229584 82.88440491214696 l 8.68484654725545 -12.216324301845171 a35.98883381044796,35.98883381044796 0 0,0 0.5004487089117277,0.3622862717481574 l -8.893276266541143 12.06543725872394" fill="#ffbe11" stroke="none" /><path d="M 112.45986205192187 83.09580414077388 l 24.43234649721654 -33.14717039148285 a62.17856797318293,62.17856797318293 0 0,0 0.8537621061369546,0.6406790010175187 l -24.99776159226426 32.72287236320132" fill="#32ff47" stroke="none" /><path d="M 113.03279911837588 83.53348406188908 l 6.886409737391776 -8.700753741937133 a32.09620451997336,32.09620451997336 0 0,0 0.42909450921440756,0.34564816261655706 l -7.034755016961443 8.581257285527167" fill="#ff8b0c" stroke="none" /><path d="M 113.31354834802062 83.75963576809568 l 22.611717966693256 -27.582619305452862 a56.666380208185124,56.666380208185124 0 0,0 0.7469861157983901,0.6231623852808521 l -23.081878416653538 27.19039473626014" fill="#52ff2b" stroke="none" /><path d="M 113.59037401385872 83.9905735841838 l 21.346313348859766 -25.145903450415364 a53.98456538936537,53.98456538936537 0 0,0 0.7013379625858357,0.6057990281117118 l -21.774830791208462 24.77576028983893" fill="#6eff28" stroke="none" /><path d="M 114.13192950727249 84.46653392183569 l 6.6478596164858645 -7.307162252114281 a30.87869716406103,30.87869716406103 0 0,0 0.38902780810583093,0.3600783313348112 l -6.77231719590566 7.191966174647093" fill="#ff7a0b" stroke="none" /><path d="M 114.39649973595853 84.71141617570332 l 6.356503343684152 -6.750386273171898 a30.27215452822565,30.27215452822565 0 0,0 0.37527022551591044,0.35950038708830856 l -6.471446055065375 6.64027375577801" fill="#ff720a" stroke="none" /><path d="M 116.7966241395341 87.39550010848427 l 20.07356655855208 -15.063578574344497 a46.09700129190878,46.09700129190878 0 0,0 0.4695264514086221,0.6370028065017356 l -20.32919502954453 14.716769458573888" fill="#c5ff1e" stroke="none" /><line stroke="#e1ed5e" stroke-width="0.3" x1="172.87174338648825" x2="177.1583165268699" y1="56.24261187166439" y2="53.66864786411523" /><path d="M 173.72905801456457 55.72781907015455 a86.0,86.0 0 0,1 12.242430191666344,42.057860355516425" fill="none" id="id15" stroke="none" /><text fill="#e1ed5e" style="font-size:6.75px; font-family:Arial;" text-anchor="middle"><textPath startOffset="22.145653131862474" xlink:href="#id15">March</textPath></text><path d="M 118.8641267826498 90.77261029715802 l 9.062691144054094 -4.433016375801479 a31.088805923430215,31.088805923430215 0 0,0 0.23038395461640448,0.48141385771542194 l -9.13745435663041 4.2767900160209535" fill="#ff7d0b" stroke="none" /><path d="M 119.83427380445688 93.10060997987247 l 7.1596141934760436 -2.4904854698200345 a28.580408516353742,28.580408516353742 0 0,0 0.15721208766934247,0.4647696024371054 l -7.201311702717751 2.3672141929087673" fill="#ff5b08" stroke="none" /><path d="M 120.35273937422433 94.82641323984039 l 11.69568119649423 -2.9729964245432856 a33.067628863632486,33.067628863632486 0 0,0 0.13512452500140887,0.5513541733629598 l -11.74499324801193 2.771786426572231" fill="#ff980e" stroke="none" /><path d="M 120.43855184770803 95.1765574152323 l 14.206334198660455 -3.352656189041339 a35.59658298664269,35.59658298664269 0 0,0 0.13524860419025,0.5959303051044649 l -14.261793664408371 3.108291549997848" fill="#ffb911" stroke="none" /><path d="M 120.51834098615036 95.52812308129327 l 5.172061992371397 -1.1272268387301723 a26.29347386872613,26.29347386872613 0 0,0 0.09233052159331225,0.44183496984907444 l -5.190650224789076 1.0382754175956934" fill="#ff3b05" stroke="none" /><path d="M 120.77682067341334 96.94652285012252 l 10.37250630002913 -1.5244012292327256 a31.483925126202983,31.483925126202983 0 0,0 0.07399544501634474,0.53539417934858 l -10.397146261600687 1.34611874168406" fill="#ff830c" stroke="none" /><path d="M 120.82617615685814 97.30363454192243 l 13.120530092571949 -1.6987153026470632 a34.2300394402108,34.2300394402108 0 0,0 0.07044528056454007,0.5833879788005907 l -13.147757459396152 1.4732336469230596" fill="#ffa70f" stroke="none" /><path d="M 120.86939407059847 97.66154086499901 l 30.715751615440695 -3.4417640354370254 a51.907978532687565,51.907978532687565 0 0,0 0.09162402739617934,0.8863793504407828 l -30.77030803531854 2.9139801627133113" fill="#84ff25" stroke="none" /><line stroke="#e1ed5e" stroke-width="0.3" x1="184.99686870605535" x2="189.99668451229388" y1="99.2704041080226" y2="99.22748670261217" /><path d="M 185.99683186730306 99.26182062694052 a86.0,86.0 0 0,1 -10.086455211305974,41.156179273409016" fill="none" id="id16" stroke="none" /><text fill="#e1ed5e" style="font-size:6.75px; font-family:Arial;" text-anchor="middle"><textPath startOffset="21.40746469413373" xlink:href="#id16">April</textPath></text><path d="M 120.96210409425399 101.26102812881392 l 8.613349080018919 0.5181576918213394 a29.628920544764355,29.628920544764355 0 0,0 -0.03490010139202202,0.5074398147206177 l -8.603185017461831 -0.6659409306963007" fill="#ff6909" stroke="none" /><path d="M 120.86939407059847 102.33845913500097 l 8.540810420767661 0.9570156220727767 a29.59426096557376,29.59426096557376 0 0,0 -0.06090486750567475,0.5043796726836952 l -8.523123467002323 -1.1034889716798806" fill="#ff6909" stroke="none" /><path d="M 120.82617615685814 102.69636545807757 l 33.44794665676232 4.33050634593888 a54.72711699457626,54.72711699457626 0 0,0 -0.12862301508604204,0.9306520636792859 l -33.36867912512107 -4.904046717818251" fill="#66ff29" stroke="none" /><path d="M 120.77682067341334 103.0534771498775 l 25.529821850293995 3.752004644294253 a46.80405670739689,46.80405670739689 0 0,0 -0.12364853466677575,0.7939122920345396 l -25.46165182348895 -4.189705118260243" fill="#bdff1f" stroke="none" /><path d="M 120.43855184770803 104.8234425847677 l 11.955998563913457 2.821583106587305 a33.28443050725916,33.28443050725916 0 0,0 -0.13601044334877951,0.554969022540632 l -11.905800594048381 -3.0264079537360367" fill="#ff9b0e" stroke="none" /><path d="M 120.35273937422433 105.17358676015961 l 32.29699621964425 8.20977014261229 a54.32410974964287,54.32410974964287 0 0,0 -0.23750117718740602,0.9018306543484277 l -32.151305561652116 -8.762981301333522" fill="#6aff28" stroke="none" /><path d="M 120.26092885502905 105.52220625578681 l 24.335968982380116 6.632876563394872 a46.223688029639916,46.223688029639916 0 0,0 -0.21522961511487573,0.7637739749649719 l -24.21852087519066 -7.049658462262852" fill="#c3ff1e" stroke="none" /><path d="M 119.94978838288452 106.5578916946017 l 5.683752149560915 1.868362225223298 a26.982960463038317,26.982960463038317 0 0,0 -0.14842501441035308,0.4387921817075008 l -5.650841713578197 -1.9656560814049595" fill="#ff4506" stroke="none" /><path d="M 119.71291397450082 107.23885506374661 l 11.498311642161843 4.222339303213415 a33.24905383332669,33.24905383332669 0 0,0 -0.20134568760957178,0.5340933576910993 l -11.42413527073783 -4.419100941098673" fill="#ff9a0e" stroke="none" /><path d="M 119.4528033332814 107.91128576633889 l 23.383463285502522 9.509850949955522 a46.243288619251146,46.243288619251146 0 0,0 -0.3053689997681049,0.7327744337624248 l -23.21676844119793 -9.909857893159224" fill="#c3ff1e" stroke="none" /><path d="M 119.31412917781788 108.2440532568976 l 11.007940130462261 4.698635069112873 a32.96878930504413,32.96878930504413 0 0,0 -0.2266464822176096,0.5186115057630737 l -10.925659766227685 -4.8869086446517915" fill="#ff960d" stroke="none" /><path d="M 119.16976305983485 108.57439118712176 l 8.911464900792959 3.9859849008672286 a30.762288784296764,30.762288784296764 0 0,0 -0.21975339115521836,0.4802008188469516 l -8.841727044782685 -4.138374701928869" fill="#ff790b" stroke="none" /><path d="M 119.0197475246899 108.90220220490707 l 8.837938444521091 4.136601445708802 a30.75810573163583,30.75810573163583 0 0,0 -0.22793329703355486,0.4762929259089359 l -8.765625889527625 -4.287706873682841" fill="#ff790b" stroke="none" /><path d="M 118.8641267826498 109.22738970284198 l 6.452338921951941 3.156162297553354 a28.18289899777473,28.18289899777473 0 0,0 -0.2163105764955387,0.4327660537017641 l -6.39720843224467 -3.266460207418864" fill="#ff5507" stroke="none" /><path d="M 118.5362547648365 109.86951160357373 l 50.04321447845863 26.645193014514142 a77.69470545048915,77.69470545048915 0 0,0 -0.6369288025508657,1.1718772579074683 l -49.57844032629242 -27.500325105896213" fill="#45fff0" stroke="none" /><line stroke="#e1ed5e" stroke-width="0.3" x1="174.33088141563837" x2="178.70328620479359" y1="141.23008692659167" y2="143.65538615756765" /><path d="M 175.20536237346943 141.71514677278685 a86.0,86.0 0 0,1 -30.301960400862466,31.631185727798858" fill="none" id="id17" stroke="none" /><text fill="#e1ed5e" style="font-size:6.75px; font-family:Arial;" text-anchor="middle"><textPath startOffset="22.145653131862474" xlink:href="#id17">May</textPath></text><path d="M 118.36410011445183 110.18625677009912 l 26.265693436096722 14.569137388563757 a51.03575229498773,51.03575229498773 0 0,0 -0.43153556183921143,0.7624819888309791 l -26.01172450923613 -15.017876147493858" fill="#8eff24" stroke="none" /><path d="M 118.18653347947321 110.5 l 18.308460850517495 10.570394800493995 a42.140789600988,42.140789600988 0 0,0 -0.3670789663767095,0.6233803360349648 l -18.12430817401102 -10.88312630482251" fill="#f4ff19" stroke="none" /><path d="M 117.21940702142032 112.02048342749411 l 7.0919351195392615 4.950721500876257 a29.648999197536835,29.648999197536835 0 0,0 -0.29491563219346795,0.4148357699765697 l -7.005904388815835 -5.07173449756233" fill="#ff6a09" stroke="none" /><path d="M 117.01052211995028 112.31430620078461 l 28.93838244215821 20.949157223704717 a56.72530149280913,56.72530149280913 0 0,0 -0.5777822584671525,0.7838725999063719 l -28.574498164107226 -21.442836132879968" fill="#52ff2b" stroke="none" /><path d="M 115.6541949942343 113.99807769240083 l 16.85978245225853 15.076121431387264 a43.61728767450728,43.61728767450728 0 0,0 -0.5038882987084097,0.5538615085182187 l -16.598496452708236 -15.363320515463155" fill="#e2ff1b" stroke="none" /><path d="M 115.41159269507618 114.26474011684316 l 20.616532303811134 19.082354513451783 a49.09230602871793,49.09230602871793 0 0,0 -0.5777560496872319,0.6135569032502508 l -20.285920420387644 -19.433452876646534" fill="#a3ff22" stroke="none" /><path d="M 111.8722381534696 117.32195027204791 l 14.262847957793268 20.809921420795714 a46.228588177042724,46.228588177042724 0 0,0 -0.6584353485613554,0.44302468754804586 l -13.903516321134909 -21.05169578240088" fill="#c3ff1e" stroke="none" /><path d="M 111.5731344415666 117.5232005979908 l 13.95396917774578 21.12808783777687 a46.32013727242201,46.32013727242201 0 0,0 -0.6672622400350127,0.4325113223570224 l -13.589221305453757 -21.36451300183779" fill="#c2ff1e" stroke="none" /><path d="M 110.96478420261333 117.91015095944535 l 6.2476099688293605 10.205001357965669 a32.9655623787057,32.9655623787057 0 0,0 -0.4851702615676402,0.2913308019974981 l -6.071506950704284 -10.310746160499091" fill="#ff960d" stroke="none" /><line stroke="#e1ed5e" stroke-width="0.3" x1="143.1302829299769" x2="145.66735839644613" y1="173.24464959558577" y2="177.55315839532614" /><path d="M 143.63769802327073 174.10635135553383 a86.0,86.0 0 0,1 -40.68552437913181,11.842963189579606" fill="none" id="id18" stroke="none" /><text fill="#e1ed5e" style="font-size:6.75px; font-family:Arial;" text-anchor="middle"><textPath startOffset="21.407464694133747" xlink:href="#id18">June</textPath></text><path d="M 110.65571695917076 118.09573695890943 l 4.793189631828414 8.139883886188434 a30.4462890347108,30.4462890347108 0 0,0 -0.4526457505874318,0.26133514594919494 l -4.652751413380583 -8.2209659294138" fill="#ff750a" stroke="none" /><path d="M 110.34350942703117 118.27599006163325 l 5.88513774450134 10.398474491526677 a32.948352104900714,32.948352104900714 0 0,0 -0.49462664246425375,0.2743610606602967 l -5.705766913880992 -10.497968467620119" fill="#ff960d" stroke="none" /><path d="M 110.02825361518725 118.45085714620011 l 11.534069728096101 21.221389190348926 a45.15330461160214,45.15330461160214 0 0,0 -0.6842041205527801,0.36430015624400675 l -11.168076791756768 -21.4162598143155" fill="#d0ff1d" stroke="none" /><path d="M 109.71004243097381 118.62028667847754 l 16.180180431081055 31.027629413356397 a55.99302824556511,55.99302824556511 0 0,0 -0.8560874830225451,0.4371243686961276 l -15.645165726344928 -31.30081173372536" fill="#59ff2a" stroke="none" /><path d="M 109.3889696526874 118.78422872680471 l 6.476400752636558 12.957139874145229 a35.485552817442475,35.485552817442475 0 0,0 -0.5472205990094401,0.26767301654942705 l -6.25301990436505 -13.066406640791879" fill="#ffb711" stroke="none" /><path d="M 108.73861861582097 119.09545874513695 l 2.989130862202206 6.531790386143942 a28.183257545145665,28.183257545145665 0 0,0 -0.4416539200940697,0.1975461808470049 l -2.8765635392525093 -6.582140317900796" fill="#ff5507" stroke="none" /><path d="M 108.4095320186766 119.2426549942271 l 4.788688832835465 10.957457190282756 a32.958152399706336,32.958152399706336 0 0,0 -0.5203698725204812,0.22211495547367607 l -4.599883885144553 -11.038046795415838" fill="#ff960d" stroke="none" /><path d="M 106.38641147887787 120.00534299687104 l 3.645956222263623 11.420905937425688 a32.988748442026306,32.988748442026306 0 0,0 -0.5409516445644461,0.16758820227541005 l -3.4493639448275526 -11.481810727507744" fill="#ff970d" stroke="none" /><path d="M 106.0420521117495 120.11202640906438 l 3.441970805011003 11.45720136954686 a32.96305254710914,32.96305254710914 0 0,0 -0.5433252666914669,0.15815406662660395 l -3.2447855259379295 -11.514599130475982" fill="#ff960d" stroke="none" /><path d="M 104.9986988182912 120.39639698878246 l 7.483468250632117 30.535104202381284 a52.43874815746489,52.43874815746489 0 0,0 -0.8761462203136471,0.20676812237154757 l -6.958189876578591 -30.65906846839906" fill="#7eff26" stroke="none" /><path d="M 104.64783097203109 120.47920084513623 l 7.068361899630965 31.1445067300703 a52.936531424116005,52.936531424116005 0 0,0 -0.8879159953045617,0.19351715851847437 l -6.532683487707267 -31.261255346722496" fill="#79ff26" stroke="none" /><path d="M 104.29559338865022 120.5559693870025 l 2.465524753079028 11.798428473490771 a33.05328696879499,33.05328696879499 0 0,0 -0.5564025289629903,0.11129608875424155 l -2.2626257385850788 -11.839013958907874" fill="#ff980e" stroke="none" /><path d="M 102.875027216393 120.80226474461374 l 2.2951588572209998 16.606626158745243 a37.76447990711915,37.76447990711915 0 0,0 -0.642935195788347,0.0832408331058482 l -2.0097458395418775 -16.643578588051486" fill="#ffd413" stroke="none" /><path d="M 102.51750503828377 120.84855314841334 l 1.2904955283919368 10.687154227032137 a31.764787233437104,31.764787233437104 0 0,0 -0.5419134694776089,0.06072253457829589 l -1.1068461573135286 -10.707732522117404" fill="#ff860c" stroke="none" /><path d="M 102.15924093988457 120.88869738790638 l 1.106944467175397 10.708683580851462 a31.7657433597596,31.7657433597596 0 0,0 -0.5428923410103463,0.05141246913671889 l -0.9229525627800353 -10.726107805493365" fill="#ff860c" stroke="none" /><path d="M 101.80034050326958 120.92268563240118 l 0.9481375957438376 11.018796064401236 a32.059513172347465,32.059513172347465 0 0,0 -0.5487230022168295,0.042474630738390376 l -0.7588455987517724 -11.03344846213468" fill="#ff8a0c" stroke="none" /><path d="M 101.44090949804482 120.95050786540614 l 0.8207597107792628 11.933666062734625 a32.96185738920602,32.96185738920602 0 0,0 -0.5648338355100011,0.033979000938137154 l -0.6157815231367966 -11.945997041497455" fill="#ff960d" stroke="none" /><path d="M 101.08105385017728 120.97215588758144 l 0.7382475145645478 14.321804558143203 a35.340819195374166,35.340819195374166 0 0,0 -0.6061358415922615,0.026030081079977667 l -0.49228591237145675 -14.332367207649012" fill="#ffb510" stroke="none" /><path d="M 100.72087961077811 120.9876233191556 l 0.37549462746276985 10.932116378002254 a31.93856319255132,31.93856319255132 0 0,0 -0.5481063305859855,0.014117274808890821 l -0.1877749828060406 -10.936951370161191" fill="#ff890c" stroke="none" /><line stroke="#e1ed5e" stroke-width="0.3" x1="101.45913802915013" x2="101.54496967792366" y1="184.9874750549273" y2="189.98673829345242" /><path d="M 101.47630435890484 185.9873277026323 a86.0,86.0 0 0,1 -42.54439059252881,-10.42667462771756" fill="none" id="id19" stroke="none" /><text fill="#e1ed5e" style="font-size:6.75px; font-family:Arial;" text-anchor="middle"><textPath startOffset="22.145653131862474" xlink:href="#id19">July</textPath></text><path d="M 100.36049292484886 120.99690560180557 l 0.18494165765356527 10.771924384428562 a31.773511886129903,31.773511886129903 0 0,0 -0.5454345825024162,0.004681899895776026 l -1.319374684692495e-15 -10.773511886129903" fill="#ff860c" stroke="none" /><path d="M 99.63950707515114 120.99690560180557 l -0.40827169106958955 23.779779203356124 a44.78328372479497,44.78328372479497 0 0,0 -0.7685380574575452,-0.019794814167931787 l 0.8164230625978788 -23.769266671838146" fill="#d4ff1c" stroke="none" /><path d="M 97.84075906011543 120.88869738790638 l -1.1078661221304174 10.71759975648329 a31.77470704403303,31.77470704403303 0 0,0 -0.5420827033823441,-0.06074149759030962 l 1.2916847271135607 -10.69700249838601" fill="#ff860c" stroke="none" /><path d="M 95.35216902796893 120.47920084513623 l -1.6972046441984068 7.478196817611113 a28.668372138023663,28.668372138023663 0 0,0 -0.47899095180246515,-0.11304056040063837 l 1.8253277497407598 -7.447960113564247" fill="#ff5c08" stroke="none" /><path d="M 95.00130118170881 120.39639698878247 l -3.413592188821163 13.928621021581113 a35.340819195374166,35.340819195374166 0 0,0 -0.5879950076163174,-0.14946603159947827 l 3.6521924896628595 -13.867969758146373" fill="#ffb510" stroke="none" /><path d="M 92.25597844496254 119.51999308798841 l -23.232064665112382 58.55997926396522 a84.0,84.0 0 0,0 -1.3357821552382365,-0.5432509736828348 l 24.233901281541062 -58.152541033703095" fill="#4dd2ff" stroke="none" /><path d="M 91.59046798132341 119.24265499422711 l -9.240487148512074 21.144042948229295 a44.075033151403744,44.075033151403744 0 0,0 -0.6906906037533587,-0.30893712182906796 l 9.602091155121068 -20.982302075490374" fill="#dcff1b" stroke="none" /><line stroke="#e1ed5e" stroke-width="0.3" x1="58.13341422392154" x2="55.67067388415222" y1="173.97424548756322" y2="178.32567169271397" /><path d="M 57.64086615596768 174.84453072859336 a86.0,86.0 0 0,1 -31.369924170532247,-30.572349798747897" fill="none" id="id20" stroke="none" /><text fill="#e1ed5e" style="font-size:6.75px; font-family:Arial;" text-anchor="middle"><textPath startOffset="22.145653131862474" xlink:href="#id20">August</textPath></text><path d="M 88.72937992617639 117.7192867562869 l -12.832775007708037 20.17525377939107 a44.91068755726798,44.91068755726798 0 0,0 -0.6469584881566621,-0.4193506756924465 l 13.17721912812171 -19.95198926199473" fill="#d3ff1c" stroke="none" /><path d="M 88.4268655584334 117.5232005979908 l -5.286748027060564 8.004810335260741 a30.59305442521442,30.59305442521442 0 0,0 -0.43573791128723954,-0.293183913079173 l 5.423382226444807 -7.912876748124447" fill="#ff770a" stroke="none" /><path d="M 88.1277618465304 117.32195027204791 l -6.7946669831998125 9.913622189571456 a33.018627389604404,33.018627389604404 0 0,0 -0.4647842066224487,-0.3244554731830299 l 6.963846280996027 -9.795521900583296" fill="#ff970d" stroke="none" /><path d="M 83.4222238831116 112.89097897827486 l -4.729283108065884 3.6775191496451827 a26.990848505198937,26.990848505198937 0 0,0 -0.28128065832821747,-0.36820541098206727 l 4.791715743748396 -3.595792825422245" fill="#ff4506" stroke="none" /><line stroke="#e1ed5e" stroke-width="0.3" x1="26.387840678322732" x2="22.057713659400534" y1="142.50000000000003" y2="145.00000000000006" /><path d="M 25.521815274538284 143.00000000000003 a86.0,86.0 0 0,1 -11.493303480769212,-40.785679425670985" fill="none" id="id21" stroke="none" /><text fill="#e1ed5e" style="font-size:6.75px; font-family:Arial;" text-anchor="middle"><textPath startOffset="21.40746469413373" xlink:href="#id21">September</textPath></text><path d="M 81.29705330413844 109.54985784667822 l -2.3110846835423677 1.1800563065470608 a23.594926839262644,23.594926839262644 0 0,0 -0.18109677884357472,-0.36231486960995474 l 2.3310013755976797 -1.140209580773352" fill="#ff1402" stroke="none" /><path d="M 79.94057633289273 106.21446072829308 l -1.1420842094926318 0.3538206075149476 a22.195635966285163,22.195635966285163 0 0,0 -0.10962919248966144,-0.3649199268355973 l 1.1479897219859228 -0.3341630770886268" fill="#ff0000" stroke="none" /><path d="M 79.56144815229197 104.8234425847677 l -19.689331759658543 4.646628684008557 a41.23019879459788,41.23019879459788 0 0,0 -0.15665343045843363,-0.6902439190975791 l 19.76619605167464 -4.307950430971952" fill="#ffff18" stroke="none" /><path d="M 79.48165901384964 104.47187691870673 l -30.747091706607797 6.701185530201857 a52.46886613662362,52.46886613662362 0 0,0 -0.1842463952078327,-0.8816856990153604 l 30.857595812639996 -6.172383379901087" fill="#7eff26" stroke="none" /><path d="M 79.407916724674 104.11899336999214 l -27.435055134742907 5.487779390479656 a48.97852699634054,48.97852699634054 0 0,0 -0.15783612001908748,-0.8258652751357497 l 27.52521754704415 -5.0160115503105915" fill="#a4ff21" stroke="none" /><path d="M 79.34024301695615 103.76489593502545 l -30.106437888909166 5.486395881572016 a51.60225714106846,51.60225714106846 0 0,0 -0.15133021065930266,-0.8728324406443151 l 30.196182917060703 -4.968770408007108" fill="#87ff25" stroke="none" /><line stroke="#e1ed5e" stroke-width="0.3" x1="15.003131293944662" x2="10.003315487706104" y1="100.72959589197737" y2="100.7725132973878" /><path d="M 14.003168132696942 100.73817937305945 a86.0,86.0 0 0,1 10.791469493833604,-42.45332614584628" fill="none" id="id22" stroke="none" /><text fill="#e1ed5e" style="font-size:6.75px; font-family:Arial;" text-anchor="middle"><textPath startOffset="22.145653131862435" xlink:href="#id22">October</textPath></text><line stroke="#e1ed5e" stroke-width="0.3" x1="26.387840678322718" x2="22.05771365940052" y1="57.49999999999999" y2="54.99999999999999" /><path d="M 25.521815274538284 56.99999999999999 a86.0,86.0 0 0,1 29.574782752854787,-30.34633250058573" fill="none" id="id23" stroke="none" /><text fill="#e1ed5e" style="font-size:6.75px; font-family:Arial;" text-anchor="middle"><textPath startOffset="21.40746469413373" xlink:href="#id23">November</textPath></text><path d="M 88.12776184653039 82.6780497279521 l -14.555010327254166 -21.236195049217333 a46.74537445435351,46.74537445435351 0 0,0 0.6657959530282527,-0.4479772307267196 l 14.188318086128925 21.482921954001164" fill="#bdff1f" stroke="none" /><line stroke="#e1ed5e" stroke-width="0.3" x1="56.869717070023135" x2="54.33264160355391" y1="26.7553504044142" y2="22.446841604673864" /><path d="M 56.362301976729285 25.89364864446614 a86.0,86.0 0 0,1 42.16139366436587,-11.88097634709845" fill="none" id="id24" stroke="none" /><text fill="#e1ed5e" style="font-size:6.75px; font-family:Arial;" text-anchor="middle"><textPath startOffset="22.145653131862474" xlink:href="#id24">December</textPath></text><path d="M 90.28995756902619 81.37971332152246 l -10.825728290200892 -20.759761422240132 a44.412904290616865,44.412904290616865 0 0,0 0.679036884397958,-0.3467210715029577 l 10.467764184089352 20.942540445415922" fill="#d9ff1c" stroke="none" /></svg>