<?xml version="1.0" encoding="utf-8" ?>
<svg baseProfile="full" height="200mm" version="1.1" viewBox="0,0,200,200" width="200mm" xmlns="http://www.w3.org/2000/svg" xmlns:ev="http://www.w3.org/2001/xml-events" xmlns:xlink="http://www.w3.org/1999/xlink"><defs /><rect fill="#1a1a1a" height="200" width="200" x="0" y="0" /><text alignment-baseline="middle" fill="#e1ed5e" style="dominant-baseline: central; font-size:9.0px; font-family:Arial;" text-anchor="middle" x="100.0" y="100.0">2025</text><line stroke="#e1ed5e" stroke-width="0.3" x1="100.0" x2="100.0" y1="15.0" y2="10.0" /><path d="M 100.0 14.0 a86.0,86.0 0 0,1 42.46469731375804,11.215312516191453" fill="none" id="id121" stroke="none" /><text fill="#e1ed5e" style="font-size:6.75px; font-family:Arial;" text-anchor="middle"><textPath startOffset="22.20632615414155" xlink:href="#id121">January</textPath></text><path d="M 101.08401301168833 79.027996857942 l 0.9591254299936018 -18.555848790159047 a39.58062017032013,39.58062017032013 0 0,0 0.6801042803769451,0.04102574747656481 l -1.2783917592101588 18.536589773302175" fill="#ffbf11" stroke="none" /><path d="M 101.44485096284872 79.0497635885617 l 3.4709405631137282 -50.32839181136858 a71.44793802239394,71.44793802239394 0 0,0 1.2262160863381992,0.09517796825482415 l -4.3367468388142685 50.26118858092529" fill="#3cffa5" stroke="none" /><path d="M 102.52436894288641 79.15227682838746 l 0.7484877327481614 -6.181451841124063 a27.226602665194765,27.226602665194765 0 0,0 0.4647779070591117,0.06034151155152139 l -0.8547803683151193 6.167652006408405" fill="#ff0801" stroke="none" /><path d="M 102.88285421437855 79.19881850522331 l 0.801371868262427 -5.782283957820029 a26.837551253745467,26.837551253745467 0 0,0 0.45704480084167615,0.06735652298500425 l -0.900785649532759 5.767632950674056" fill="#ff0200" stroke="none" /><path d="M 103.2404852339499 79.25152402106235 l 1.3500382231276744 -8.64414852125978 a29.74893747043053,29.74893747043053 0 0,0 0.505265578290639,0.08337314970048884 l -1.4986330075571885 8.619629108619666" fill="#ff2f04" stroke="none" /><path d="M 103.59715602781102 79.31037775812273 l 6.4547209490445026 -37.125367117791846 a58.68230760132471,58.68230760132471 0 0,0 0.9937007089510187,0.1815924529857135 l -7.092816779098422 37.008759183455396" fill="#52ff2b" stroke="none" /><path d="M 105.01212808612495 79.60689891045804 l 1.5294460243254182 -6.222935018642047 a27.40812963255007,27.40812963255007 0 0,0 0.4571821041928981,0.11654589794295192 l -1.6363370172033413 6.195686124530227" fill="#ff0b01" stroke="none" /><path d="M 105.36241919743992 79.69619591428918 l 5.723331743250905 -21.670332391763374 a43.413385112758235,43.413385112758235 0 0,0 0.7208732868934631,0.1970419004541559 l -6.095502919368079 21.568603950482924" fill="#fff316" stroke="none" /><path d="M 105.71112130821622 79.79150937346287 l 2.969427317314422 -10.50715627801544 a31.918691846711877,31.918691846711877 0 0,0 0.5274332527752623,0.15397222965718416 l -3.1498507878131115 10.454485719439553" fill="#ff5007" stroke="none" /><path d="M 106.0581310904928 79.89281104454417 l 12.468323576167188 -41.382884318431834 a64.22039110550386,64.22039110550386 0 0,0 1.0557056371361153,0.3280128803699105 l -13.178814586014022 41.1621313031794" fill="#32ff4d" stroke="none" /><path d="M 106.40334571778207 80.00007090966166 l 1.7476534024062558 -5.458543964844729 a26.73149148399306,26.73149148399306 0 0,0 0.4370181054064452,0.1440779983842437 l -1.8413543300551185 5.427652242201249" fill="#ff0000" stroke="none" /><path d="M 107.4271985657038 80.35727306442388 l 6.462283539930771 -17.090814232606927 a39.27175524365242,39.27175524365242 0 0,0 0.6302496503392129,0.2445270728158205 l -6.755516355269651 16.97704445590056" fill="#ffba11" stroke="none" /><path d="M 108.09893153111575 80.62456947434976 l 12.424582867870539 -29.72387669184869 a53.21613113073648,53.21613113073648 0 0,0 0.8421230820144843,0.36055315510834324 l -12.934389707675338 29.505604008777556" fill="#90ff24" stroke="none" /><path d="M 108.43124777332544 80.76684994638697 l 12.927658404749543 -29.490248730091793 a53.19936524207538,53.19936524207538 0 0,0 0.8355286639549194,0.3748773564406024 l -13.433369187171243 29.26335104313466" fill="#91ff24" stroke="none" /><path d="M 109.08828744355905 81.06846463323043 l 27.264862330677165 -56.79460610030869 a84.0,84.0 0 0,0 1.2981149319582728,0.6369793594606721 l -28.23844852964587 56.31687158071319" fill="#4dd2ff" stroke="none" /><path d="M 109.41281617654863 81.2277094730956 l 4.187096295313685 -8.350464584189318 a30.34141499763444,30.34141499763444 0 0,0 0.4648586698669583,0.23811866591455022 l -4.330215452769399 8.277153392962267" fill="#ff3805" stroke="none" /><path d="M 109.73455568895987 81.39251694778311 l 15.314289867346151 -29.273076067206546 a54.0369559217789,54.0369559217789 0 0,0 0.8204738602947863,0.4382687213602839 l -15.815908774169248 29.00512861934451" fill="#87ff25" stroke="none" /><path d="M 110.36928655335952 81.73862282372117 l 23.630150294540837 -41.61511836327444 a68.85605582715661,68.85605582715661 0 0,0 1.0256380596325885,0.5941157644952111 l -24.342985086638755 41.20219844138918" fill="#39ff87" stroke="none" /><line stroke="#e1ed5e" stroke-width="0.3" x1="143.23703022742887" x2="145.7803849466894" y1="26.81831364943548" y2="22.513508569990506" /><path d="M 143.74570117128098 25.957352633546492 a86.0,86.0 0 0,1 28.547481713284135,27.462654790039103" fill="none" id="id122" stroke="none" /><text fill="#e1ed5e" style="font-size:6.75px; font-family:Arial;" text-anchor="middle"><textPath startOffset="19.985693538727396" xlink:href="#id122">February</textPath></text><line stroke="#e1ed5e" stroke-width="0.3" x1="172.23445277983987" x2="176.4835382374775" y1="55.19839476539836" y2="52.563006222186495" /><path d="M 173.08426987136738 54.67131705675599 a86.0,86.0 0 0,1 12.851231095245387,41.99856678651699" fill="none" id="id123" stroke="none" /><text fill="#e1ed5e" style="font-size:6.75px; font-family:Arial;" text-anchor="middle"><textPath startOffset="22.20632615414155" xlink:href="#id123">March</textPath></text><line stroke="#e1ed5e" stroke-width="0.3" x1="184.98032266829074" x2="189.97916517819016" y1="98.17113171792111" y2="98.06355123074" /><path d="M 185.9800911702706 98.14961562048488 a86.0,86.0 0 0,1 -9.607161424134198,41.387399972396054" fill="none" id="id124" stroke="none" /><text fill="#e1ed5e" style="font-size:6.75px; font-family:Arial;" text-anchor="middle"><textPath startOffset="21.466115282336823" xlink:href="#id124">April</textPath></text><line stroke="#e1ed5e" stroke-width="0.3" x1="174.80103733775053" x2="179.2010983576182" y1="140.37084112569926" y2="142.7455964860345" /><path d="M 175.68104954172406 140.8457921977663 a86.0,86.0 0 0,1 -30.038265399797805,32.042727171017184" fill="none" id="id125" stroke="none" /><text fill="#e1ed5e" style="font-size:6.75px; font-family:Arial;" text-anchor="middle"><textPath startOffset="22.206326154141568" xlink:href="#id125">May</textPath></text><line stroke="#e1ed5e" stroke-width="0.3" x1="143.8653032363475" x2="146.44561519142675" y1="172.8068346515853" y2="177.08958963109032" /><path d="M 144.38136562736335 173.6633856474863 a86.0,86.0 0 0,1 -40.68145358897372,12.25698825130547" fill="none" id="id126" stroke="none" /><text fill="#e1ed5e" style="font-size:6.75px; font-family:Arial;" text-anchor="middle"><textPath startOffset="21.466115282336833" xlink:href="#id126">June</textPath></text><line stroke="#e1ed5e" stroke-width="0.3" x1="102.19456741930631" x2="102.32365962044197" y1="184.97166512339345" y2="189.96999836594603" /><path d="M 102.22038585953345 185.97133177190398 a86.0,86.0 0 0,1 -42.740103519485714,-10.115201625700543" fill="none" id="id127" stroke="none" /><text fill="#e1ed5e" style="font-size:6.75px; font-family:Arial;" text-anchor="middle"><textPath startOffset="22.20632615414155" xlink:href="#id127">July</textPath></text><line stroke="#e1ed5e" stroke-width="0.3" x1="58.666819895761336" x2="56.23545636021788" y1="174.27360380694188" y2="178.64263932499728" /><path d="M 58.180547188652646 175.14741091055294 a86.0,86.0 0 0,1 -31.652253787137756,-30.449443065178592" fill="none" id="id128" stroke="none" /><text fill="#e1ed5e" style="font-size:6.75px; font-family:Arial;" text-anchor="middle"><textPath startOffset="22.20632615414155" xlink:href="#id128">August</textPath></text><line stroke="#e1ed5e" stroke-width="0.3" x1="26.63291911575756" x2="22.317208475507996" y1="142.92168965132927" y2="145.44649492493687" /><path d="M 25.769776987707644 143.4266507060508 a86.0,86.0 0 0,1 -11.730757126820373,-40.83630448921669" fill="none" id="id129" stroke="none" /><text fill="#e1ed5e" style="font-size:6.75px; font-family:Arial;" text-anchor="middle"><textPath startOffset="21.46611528233685" xlink:href="#id129">September</textPath></text><line stroke="#e1ed5e" stroke-width="0.3" x1="15.007084014347285" x2="10.007500721073583" y1="101.09737516637583" y2="101.16192664675087" /><path d="M 14.007167355692545 101.11028546245083 a86.0,86.0 0 0,1 10.666146001902534,-42.60595125391555" fill="none" id="id130" stroke="none" /><text fill="#e1ed5e" style="font-size:6.75px; font-family:Arial;" text-anchor="middle"><textPath startOffset="22.20632615414155" xlink:href="#id130">October</textPath></text><line stroke="#e1ed5e" stroke-width="0.3" x1="26.266209847984243" x2="21.928928074336255" y1="57.711370442889674" y2="55.22380399835377" /><path d="M 25.398753493254645 57.213857153982495 a86.0,86.0 0 0,1 29.58750427330803,-30.492523968695096" fill="none" id="id131" stroke="none" /><text fill="#e1ed5e" style="font-size:6.75px; font-family:Arial;" text-anchor="middle"><textPath startOffset="21.46611528233685" xlink:href="#id131">November</textPath></text><line stroke="#e1ed5e" stroke-width="0.3" x1="56.762969772571076" x2="54.21961505331055" y1="26.818313649435495" y2="22.513508569990535" /><path d="M 56.25429882871897 25.957352633546506 a86.0,86.0 0 0,1 42.265352541879196,-11.944610805530505" fill="none" id="id132" stroke="none" /><text fill="#e1ed5e" style="font-size:6.75px; font-family:Arial;" text-anchor="middle"><textPath startOffset="22.20632615414155" xlink:href="#id132">December</textPath></text></svg>