<?xml version="1.0" encoding="utf-8" ?>
<svg baseProfile="full" height="200mm" version="1.1" viewBox="0,0,200,200" width="200mm" xmlns="http://www.w3.org/2000/svg" xmlns:ev="http://www.w3.org/2001/xml-events" xmlns:xlink="http://www.w3.org/1999/xlink"><defs /><rect fill="#1a1a1a" height="200" width="200" x="0" y="0" /><text alignment-baseline="middle" fill="#e1ed5e" style="dominant-baseline: central; font-size:9.0px; font-family:Arial;" text-anchor="middle" x="100.0" y="100.0">2019</text><line stroke="#e1ed5e" stroke-width="0.3" x1="100.0" x2="100.0" y1="15.0" y2="10.0" /><path d="M 100.0 14.0 a86.0,86.0 0 0,1 42.46469731375804,11.215312516191453" fill="none" id="id49" stroke="none" /><text fill="#e1ed5e" style="font-size:6.75px; font-family:Arial;" text-anchor="middle"><textPath startOffset="22.20632615414155" xlink:href="#id49">January</textPath></text><path d="M 100.36148047927253 79.00311137660856 l 0.0724813081807119 -4.21013593378783 a25.210759803290507,25.210759803290507 0 0,0 0.4338331952099554,0.011204631499674031 l -0.1449411385855351 4.2082645101457965" fill="#ff3204" stroke="none" /><path d="M 101.80526077348638 79.07773832637324 l 2.0966198875861726 -24.298999104429875 a45.389283967146426,45.389283967146426 0 0,0 0.7778315618638875,0.0738644792582467 l -2.5145765765403043 24.25930908065645" fill="#caff1d" stroke="none" /><path d="M 103.95276090670814 79.375362276772 l 1.9805938548715527 -10.334303464763977 a31.52238471639332,31.52238471639332 0 0,0 0.532028190342376,0.10671984992132554 l -2.158188454681054 10.298679658765444" fill="#ff880c" stroke="none" /><path d="M 105.01212808612495 79.60689891045804 l 1.1213828424313543 -4.562627545191271 a25.698411390612527,25.698411390612527 0 0,0 0.4286630992879559,0.10927576859054938 l -1.1997548304043353 4.542648780431853" fill="#ff3905" stroke="none" /><path d="M 106.40334571778207 80.00007090966166 l 3.568374410050718 -11.145304082302742 a32.702610777826415,32.702610777826415 0 0,0 0.5346365732165745,0.1762612724258064 l -3.75969380550971 11.082229085617698" fill="#ff980e" stroke="none" /><path d="M 109.08828744355905 81.06846463323043 l 6.22617538587467 -12.969556723355252 a35.38661397049358,35.38661397049358 0 0,0 0.5468558569826302,0.2683397940524651 l -6.4485025098677315 12.860461769167953" fill="#ffbb11" stroke="none" /><line stroke="#e1ed5e" stroke-width="0.3" x1="143.23703022742887" x2="145.7803849466894" y1="26.81831364943548" y2="22.513508569990506" /><path d="M 143.74570117128098 25.957352633546492 a86.0,86.0 0 0,1 28.547481713284135,27.462654790039103" fill="none" id="id50" stroke="none" /><text fill="#e1ed5e" style="font-size:6.75px; font-family:Arial;" text-anchor="middle"><textPath startOffset="19.985693538727396" xlink:href="#id50">February</textPath></text><path d="M 111.90073688211348 82.69761687909136 l 3.0728530554925446 -4.467595693195816 a26.422346095419552,26.422346095419552 0 0,0 0.37251589990463035,0.2609711938060552 l -3.1493000949808256 4.414039656625825" fill="#ff4306" stroke="none" /><path d="M 112.19680574252982 82.90503203632743 l 14.202547349613882 -19.906203072299895 a45.45341023198331,45.45341023198331 0 0,0 0.6330029861921973,0.4599035898230188 l -14.543095652159867 19.658780247660204" fill="#c9ff1d" stroke="none" /><path d="M 115.19652480421416 85.50635884689758 l 8.408738508068852 -8.019809795751918 a32.61999279075157,32.61999279075157 0 0,0 0.38403467499817634,0.4096614152446933 l -8.545540505037492 7.87387896362917" fill="#ff970d" stroke="none" /><line stroke="#e1ed5e" stroke-width="0.3" x1="172.23445277983987" x2="176.4835382374775" y1="55.19839476539836" y2="52.563006222186495" /><path d="M 173.08426987136738 54.67131705675599 a86.0,86.0 0 0,1 12.851231095245387,41.99856678651699" fill="none" id="id51" stroke="none" /><text fill="#e1ed5e" style="font-size:6.75px; font-family:Arial;" text-anchor="middle"><textPath startOffset="22.20632615414155" xlink:href="#id51">March</textPath></text><path d="M 118.21658344932153 89.55222093294921 l 8.614405106258243 -4.940630145858245 a30.9306496047787,30.9306496047787 0 0,0 0.26091086796894164,0.46413132089974374 l -8.698173615519618 4.791615315023708" fill="#ff800b" stroke="none" /><path d="M 119.34039704204932 91.81776055985345 l 10.31884553013853 -4.365539378013358 a32.20430752594042,32.20430752594042 0 0,0 0.21159504892511413,0.5123941945408936 l -10.392462265949842 4.187270613019161" fill="#ff910d" stroke="none" /><path d="M 120.18372546131832 94.20196356495316 l 8.435393076240866 -2.4231758648183632 a29.776539045804476,29.776539045804476 0 0,0 0.1372744241133865,0.4938491415694251 l -8.475854270920614 2.2776154198299863" fill="#ff710a" stroke="none" /><path d="M 120.94382443527127 98.46500227214037 l 5.396247357649772 -0.3954973676637232 a26.410721182316742,26.410721182316742 0 0,0 0.02932773376756147,0.4536870606219583 l -5.402255682421749 0.30255124278872964" fill="#ff4206" stroke="none" /><line stroke="#e1ed5e" stroke-width="0.3" x1="184.98032266829074" x2="189.97916517819016" y1="98.17113171792111" y2="98.06355123074" /><path d="M 185.9800911702706 98.14961562048488 a86.0,86.0 0 0,1 -9.607161424134198,41.387399972396054" fill="none" id="id52" stroke="none" /><text fill="#e1ed5e" style="font-size:6.75px; font-family:Arial;" text-anchor="middle"><textPath startOffset="21.466115282336823" xlink:href="#id52">April</textPath></text><path d="M 120.99980553446 99.90962569577887 l 4.593149875517848 -0.019766979437125055 a25.59319240969129,25.59319240969129 0 0,0 -0.0018959713715251262,0.4405569751720381 l -4.59280960685682 -0.059299473938597774" fill="#ff3705" stroke="none" /><path d="M 120.9764740272857 100.99374915477107 l 7.657906363008419 0.36278918781376757 a28.666495017894384,28.666495017894384 0 0,0 -0.027593070075052694,0.49269280216608374 l -7.650526942045838 -0.4945537063152746" fill="#ff6209" stroke="none" /><path d="M 120.89721153311464 102.0752229133903 l 2.695615998890405 0.26769141316937634 a23.70887509977085,23.70887509977085 0 0,0 -0.043824950732005874,0.40576461499198696 l -2.690608746657347 -0.3140523500461547" fill="#ff1c02" stroke="none" /><path d="M 120.64145759157962 103.86396538481128 l 14.217143387634767 2.6613697059421355 a35.46409536805788,35.46409536805788 0 0,0 -0.11748759484348698,0.5990667149415148 l -14.169225859815617 -2.9057001479515954" fill="#ffbc11" stroke="none" /><path d="M 120.02730092923936 106.31721596034902 l 31.817105209630938 10.036076531358054 a54.36241921779654,54.36241921779654 0 0,0 -0.2891763561967223,0.8899933108069855 l -31.63963660241797 -10.582268742142835" fill="#68ff28" stroke="none" /><path d="M 119.12269723197855 108.67885076344098 l 7.646814045414627 3.470512402662321 a29.39751280928963,29.39751280928963 0 0,0 -0.21309750720714665,0.4589930724799809 l -7.585941921367649 -3.6016255424211328" fill="#ff6c09" stroke="none" /><line stroke="#e1ed5e" stroke-width="0.3" x1="174.80103733775053" x2="179.2010983576182" y1="140.37084112569926" y2="142.7455964860345" /><path d="M 175.68104954172406 140.8457921977663 a86.0,86.0 0 0,1 -30.038265399797805,32.042727171017184" fill="none" id="id53" stroke="none" /><text fill="#e1ed5e" style="font-size:6.75px; font-family:Arial;" text-anchor="middle"><textPath startOffset="22.206326154141568" xlink:href="#id53">May</textPath></text><path d="M 118.48025628344425 109.97397251340804 l 3.0028810578237497 1.6206838624093867 a24.412317515898966,24.412317515898966 0 0,0 -0.2027659083206144,0.36807902094129874 l -2.9745387400516257 -1.6721334017484906" fill="#ff2603" stroke="none" /><path d="M 118.12598468904814 110.60418214915192 l 47.078837186258895 27.54236933649165 a75.54355158474729,75.54355158474729 0 0,0 -0.6662909748177472,1.1167419987798108 l -46.59776533574292 -28.348673429157564" fill="#43ffdb" stroke="none" /><path d="M 116.71984013943494 112.70617746262583 l 6.463391947616469 4.911829563682487 a29.117974201189526,29.117974201189526 0 0,0 -0.3066998757011087,0.3964509329029842 l -6.377885254697293 -5.022358490698725" fill="#ff6809" stroke="none" /><path d="M 116.27256486870786 113.27417163493432 l 5.839671699581609 4.763650048861058 a28.536187852416386,28.536187852416386 0 0,0 -0.31376761537677234,0.3779533055255423 l -5.756808084311293 -4.86346461150037" fill="#ff6008" stroke="none" /><path d="M 116.0416608686014 113.55231037782055 l 5.108310138180057 4.3156008013040195 a27.687244779731714,27.687244779731714 0 0,0 -0.31070031531862535,0.36141465977356657 l -5.033267313290653 -4.402892560239114" fill="#ff5407" stroke="none" /><path d="M 115.80600337817218 113.82643327865902 l 3.6667290722554995 3.2075018368319945 a25.87164963052602,25.87164963052602 0 0,0 -0.296096287318846,0.33266731769791397 l -3.6109739352883152 -3.2701433242707747" fill="#ff3b05" stroke="none" /><path d="M 115.32070863581623 114.36230785411682 l 6.039686138236887 5.661868110774807 a29.2785602100981,29.2785602100981 0 0,0 -0.3478480455940955,0.36471728512724944 l -5.9413315412638275 -5.764992512484564" fill="#ff6a09" stroke="none" /><path d="M 115.07121518719521 114.62390073753431 l 4.657296137303143 4.519067346015263 a27.48940497953088,27.48940497953088 0 0,0 -0.33243771934271,0.3367576545618844 l -4.578817792904897 -4.598565494557812" fill="#ff5107" stroke="none" /><path d="M 114.55890576462653 115.13401014063108 l 3.546106968082778 3.6861849154295947 a26.114961765235975,26.114961765235975 0 0,0 -0.3266411734276985,0.30885961738996215 l -3.4821299602642717 -3.7466791695654784" fill="#ff3e05" stroke="none" /><path d="M 112.92097659922987 116.55440617244103 l 5.731419059490006 7.343116700708413 a30.31506990396251,30.31506990396251 0 0,0 -0.41412012615039745,0.31752965374403985 l -5.604170204846114 -7.440685696279825" fill="#ff780b" stroke="none" /><line stroke="#e1ed5e" stroke-width="0.3" x1="143.8653032363475" x2="146.44561519142675" y1="172.8068346515853" y2="177.08958963109032" /><path d="M 144.38136562736335 173.6633856474863 a86.0,86.0 0 0,1 -40.68145358897372,12.25698825130547" fill="none" id="id54" stroke="none" /><text fill="#e1ed5e" style="font-size:6.75px; font-family:Arial;" text-anchor="middle"><textPath startOffset="21.466115282336833" xlink:href="#id54">June</textPath></text><path d="M 110.5260780823613 118.17145234162733 l 7.21694516478794 12.458806982805788 a35.398130744869846,35.398130744869846 0 0,0 -0.5298783832540214,0.30087877498795706 l -7.001418014612719 -12.581188923588373" fill="#ffbb11" stroke="none" /><path d="M 108.59647513512805 119.15986991738527 l 4.625261744606474 10.308808199582897 a32.29887484229769,32.29887484229769 0 0,0 -0.5092137948619795,0.22322436325349426 l -4.447127275086741 -10.386897116130847" fill="#ff920d" stroke="none" /><path d="M 106.2309692047433 120.05430185196036 l 1.9304629995797062 6.213172692001313 a27.506166482144238,27.506166482144238 0 0,0 -0.45336059888966795,0.13659382947175594 l -1.8232274262497925 -6.245481890578795" fill="#ff5207" stroke="none" /><path d="M 105.88484417918355 120.15858648285463 l 3.9410076752893777 13.49995711576119 a35.06344138623548,35.06344138623548 0 0,0 -0.580832304631541,0.16414901106594862 l -3.708044202553231 -13.565794920165658" fill="#ffb610" stroke="none" /><path d="M 101.62511606390274 120.93702456842531 l 0.44415682737267953 5.722251236999785 a26.739462910991527,26.739462910991527 0 0,0 -0.45920219440353194,0.03166927187341676 l -0.3455918721902172 -5.729048853389488" fill="#ff4706" stroke="none" /><path d="M 101.26447882468166 120.96189622390904 l 2.352499058004778 38.99855035781608 a60.069440510826745,60.069440510826745 0 0,0 -1.032656416577864,0.05337654131516404 l -1.680854573013435 -39.033266705893446" fill="#2fff30" stroke="none" /><line stroke="#e1ed5e" stroke-width="0.3" x1="102.19456741930631" x2="102.32365962044197" y1="184.97166512339345" y2="189.96999836594603" /><path d="M 102.22038585953345 185.97133177190398 a86.0,86.0 0 0,1 -42.740103519485714,-10.115201625700543" fill="none" id="id55" stroke="none" /><text fill="#e1ed5e" style="font-size:6.75px; font-family:Arial;" text-anchor="middle"><textPath startOffset="22.20632615414155" xlink:href="#id55">July</textPath></text><path d="M 95.86986931433489 120.58985236759428 l -2.06873406521612 10.313215787203045 a31.518653930327766,31.518653930327766 0 0,0 -0.5310270897524848,-0.11128188973731906 l 2.2459526163979917 -10.276077916739185" fill="#ff880c" stroke="none" /><path d="M 94.46302465271185 120.25689768951611 l -1.5144388144453265 5.54053977073894 a26.74378846005304,26.74378846005304 0 0,0 -0.44301573581218845,-0.125200672105102 l 1.6095857183621287 -5.513650305295316" fill="#ff4706" stroke="none" /><path d="M 93.76903079525671 120.05430185196036 l -2.1085411122310327 6.786315024596798 a28.106336414428796,28.106336414428796 0 0,0 -0.46078150929433653,-0.14752768827557694 l 2.2250439666163095 -6.749014489661514" fill="#ff5a08" stroke="none" /><path d="M 92.06813273071674 119.44442032107085 l -3.2424690809343772 7.948687181380619 a29.584592806199954,29.584592806199954 0 0,0 -0.4698717171435118,-0.1964064158737132 l 3.3788122575753516 -7.891695722486933" fill="#ff6e0a" stroke="none" /><path d="M 91.07499286063937 119.00905698771935 l -7.873695116327732 16.769904699585876 a39.52632663044878,39.52632663044878 0 0,0 -0.6133871013975207,-0.2944630841435797 l 8.161194885725495 -16.631887338942732" fill="#ffee16" stroke="none" /><line stroke="#e1ed5e" stroke-width="0.3" x1="58.666819895761336" x2="56.23545636021788" y1="174.27360380694188" y2="178.64263932499728" /><path d="M 58.180547188652646 175.14741091055294 a86.0,86.0 0 0,1 -31.652253787137756,-30.449443065178592" fill="none" id="id56" stroke="none" /><text fill="#e1ed5e" style="font-size:6.75px; font-family:Arial;" text-anchor="middle"><textPath startOffset="22.20632615414155" xlink:href="#id56">August</textPath></text><path d="M 89.1626897886671 117.98757091392108 l -5.359081848627921 8.894906845510139 a31.384561909420945,31.384561909420945 0 0,0 -0.46033799376732515,-0.2827771941333915 l 5.511399042327555 -8.80134118454837" fill="#ff860c" stroke="none" /><path d="M 88.8546689885994 117.79835938074946 l -7.680260541958484 12.26487011679957 a35.471124385282835,35.471124385282835 0 0,0 -0.5146998620025149,-0.32850580411112473 l 7.8902422060079225 -12.13084988386464" fill="#ffbc11" stroke="none" /><path d="M 87.95078237400918 117.19931262002967 l -4.966862540027113 7.089806510123205 a29.656505059347563,29.656505059347563 0 0,0 -0.41557614240367674,-0.2965025433740935 l 5.088166010279676 -7.003259704904892" fill="#ff6f0a" stroke="none" /><path d="M 87.65650970185807 116.9893568818739 l -5.806102738400962 7.9914148375332585 a30.877931975591544,30.877931975591544 0 0,0 -0.4273138625952427,-0.3161165799163058 l 5.942801571414769 -7.890288308877186" fill="#ff800b" stroke="none" /><path d="M 87.07902340077011 116.55440617244103 l -7.662629161668991 9.817390699292835 a33.453796441720954,33.453796441720954 0 0,0 -0.45089744871370585,-0.35822020321518466 l 7.830484103100055 -9.684036582072519" fill="#ffa20e" stroke="none" /><path d="M 85.97065885151581 115.62618273729859 l -11.328515077596261 12.6179444117294 a37.9572337083859,37.9572337083859 0 0,0 -0.48241917989333755,-0.44067848278420607 l 11.544033806956453 -12.421073162358617" fill="#ffdb14" stroke="none" /><path d="M 85.18274418774928 114.88116024355367 l -3.9081327670819648 3.924987912535433 a26.538865573263987,26.538865573263987 0 0,0 -0.32094255774863567,-0.32511311655673514 l 3.9751159498861335 -3.8571343019980335" fill="#ff4406" stroke="none" /><path d="M 84.9287848128048 114.62390073753433 l -9.602908474407666 9.317893652044642 a34.38054532814954,34.38054532814954 0 0,0 -0.40846289616152853,-0.42827171361222344 l 9.761877921948152 -9.15121482184992" fill="#ffae10" stroke="none" /><path d="M 83.28015986056508 112.70617746262583 l -9.671410916155027 7.349751097488405 a33.14722315198641,33.14722315198641 0 0,0 -0.3413196927124234,-0.457253506055302 l 9.796491875562536 -7.182184711923795" fill="#ff9e0e" stroke="none" /><path d="M 82.05923443525364 110.91462005526583 l -16.172048776275656 9.838586166864662 a39.92968408043461,39.92968408043461 0 0,0 -0.35217814852496904,-0.5902708341771049 l 16.339007800498855 -9.558753238801447" fill="#fff316" stroke="none" /><line stroke="#e1ed5e" stroke-width="0.3" x1="26.63291911575756" x2="22.317208475507996" y1="142.92168965132927" y2="145.44649492493687" /><path d="M 25.769776987707644 143.4266507060508 a86.0,86.0 0 0,1 -11.730757126820373,-40.83630448921669" fill="none" id="id57" stroke="none" /><text fill="#e1ed5e" style="font-size:6.75px; font-family:Arial;" text-anchor="middle"><textPath startOffset="21.46611528233685" xlink:href="#id57">September</textPath></text><path d="M 80.87730276802145 108.67885076344099 l -2.4839467425868764 1.1273411288024868 a23.727799376914955,23.727799376914955 0 0,0 -0.16559621611402234,-0.37337575121281535 l 2.5029840434321784 -1.0844170410969758" fill="#ff1d02" stroke="none" /><path d="M 80.73074385275274 108.34839909993369 l -9.653729141150318 4.182475081400389 a31.520816704858518,31.520816704858518 0 0,0 -0.21141314785221305,-0.49971823108833746 l 9.724293270194837 -4.015682324645893" fill="#ff880c" stroke="none" /><path d="M 80.20201598880116 107.00284435728193 l -2.5522929515196737 0.9027843584260828 a23.707253018872784,23.707253018872784 0 0,0 -0.13277096800801272,-0.3858945817437805 l 2.567454750470915 -0.8587170735930055" fill="#ff1c02" stroke="none" /><path d="M 80.0844068197444 106.66101706037122 l -10.47492822900336 3.5034696184058136 a32.04528952856665,32.04528952856665 0 0,0 -0.17046224565565418,-0.5246288471643329 l 10.533682725675265 -3.3226418712636776" fill="#ff8f0d" stroke="none" /><path d="M 79.97269907076064 106.31721596034903 l -60.081902787718064 18.951647881047084 a84.0,84.0 0 0,0 -0.42309290997547855,-1.3826921097918088 l 60.399222470199675 -17.914628798703227" fill="#4dd2ff" stroke="none" /><path d="M 79.29508885075956 103.50808413554451 l -6.034112343218222 1.022374528958735 a27.12011122840444,27.12011122840444 0 0,0 -0.07402272367327631,-0.4609395709737065 l 6.0508168212527895 -0.9183557282918148" fill="#ff4c07" stroke="none" /><path d="M 79.1416061653843 102.43462659150553 l -0.7438110008224409 0.08681886323631316 a21.748860681273978,21.748860681273978 0 0,0 -0.04020193888672955,-0.3722200249364434 l 0.7451952412102223 -0.07400251641508765" fill="#ff0000" stroke="none" /><path d="M 79.10278846688536 102.07522291339032 l -10.02919804776789 0.9959616649655105 a31.078529313319088,31.078529313319088 0 0,0 -0.048283312664846846,-0.532802331873039 l 10.044855956709812 -0.8231779445439052" fill="#ff820c" stroke="none" /><path d="M 79.0095281055655 100.63252640178507 l -9.079531600363026 0.27360239836219435 a30.083653029171707,30.083653029171707 0 0,0 -0.011142322260327768,-0.5177399325227998 l 9.082895985308362 -0.11727265004926574" fill="#ff750a" stroke="none" /><line stroke="#e1ed5e" stroke-width="0.3" x1="15.007084014347285" x2="10.007500721073583" y1="101.09737516637583" y2="101.16192664675087" /><path d="M 14.007167355692545 101.11028546245083 a86.0,86.0 0 0,1 10.666146001902534,-42.60595125391555" fill="none" id="id58" stroke="none" /><text fill="#e1ed5e" style="font-size:6.75px; font-family:Arial;" text-anchor="middle"><textPath startOffset="22.20632615414155" xlink:href="#id58">October</textPath></text><path d="M 79.00019446554 99.90962569577889 l -4.901883080805745 -0.021095636913120223 a25.90192847395659,25.90192847395659 0 0,0 0.0057563864678760145,-0.4458384756974456 l 4.900793687220154 0.10547037067103782" fill="#ff3b05" stroke="none" /><path d="M 79.05617556472873 98.46500227214037 l -14.686938446382456 -1.0764231343748543 a35.726331779911945,35.726331779911945 0 0,0 0.05023039938275266,-0.6129381014057016 l 14.666233563180207 1.3290751529883342" fill="#ffbf11" stroke="none" /><path d="M 79.12142395522702 97.74499172005258 l -6.626592005559274 -0.7157106791346817 a27.66513041015474,27.66513041015474 0 0,0 0.05521123093329822,-0.4730161097059688 l 6.613290421622388 0.8296705271655123" fill="#ff5407" stroke="none" /><path d="M 79.21141760316559 97.0276538004421 l -6.465287128179482 -0.9244051016879918 a27.53103838924792,27.53103838924792 0 0,0 0.07111412286252503,-0.46855321700402836 l 6.448417111877655 1.0355574310841122" fill="#ff5207" stroke="none" /><path d="M 79.32604984820605 96.31383870115002 l -12.770910992606401 -2.2770509509000942 a33.9723216354695,33.9723216354695 0 0,0 0.10760211336593331,-0.5748147922178505 l 12.729823155330607 2.4965438205805177" fill="#ffa80f" stroke="none" /><path d="M 79.3925641242962 95.95851677861259 l -12.152014826881338 -2.383225371905453 a33.38350626947141,33.38350626947141 0 0,0 0.11544446333881937,-0.5629482025067383 l 12.109191067627524 2.5920492305755936" fill="#ffa10e" stroke="none" /><path d="M 79.54389044137918 95.25157060432595 l -11.805754415831663 -2.740442465151878 a33.119647776719276,33.119647776719276 0 0,0 0.1336885618276488,-0.5542253976656275 l 11.756833053743199 2.9432530944769026" fill="#ff9d0e" stroke="none" /><path d="M 79.71946130924805 94.55025226153421 l -6.427905746367225 -1.7272945920470113 a27.655938618399034,27.655938618399034 0 0,0 0.12749813003170044,-0.4586786101965681 l 6.397220845769164 1.837684505662522" fill="#ff5407" stroke="none" /><path d="M 79.91906864156998 93.8553929516997 l -0.7734770028118984 -0.23667787904573392 a21.808877674502433,21.808877674502433 0 0,0 0.11293313582248507,-0.3580289023195904 l 0.7692883832212094 0.24995694779173883" fill="#ff0100" stroke="none" /><path d="M 80.02781315780177 93.51064311812611 l -8.476056430905878 -2.754037680782908 a29.912253147609363,29.912253147609363 0 0,0 0.16332475691850995,-0.4883202348189009 l 8.427394380215596 2.899531018524131" fill="#ff730a" stroke="none" /><path d="M 80.2630227832202 92.82701384747504 l -11.795739209451655 -4.286911469718822 a33.55058060197224,33.55058060197224 0 0,0 0.20193521148550442,-0.5410859709104852 l 11.720199409464524 4.489320577658648" fill="#ffa30f" stroke="none" /><path d="M 80.38941819471856 92.48833698450439 l -8.668463874792648 -3.32037978964517 a30.282628286001184,30.282628286001184 0 0,0 0.1906456564735479,-0.4851724010093715 l 8.61002466843741 3.469101195550305" fill="#ff780b" stroke="none" /><path d="M 80.52162464483688 92.15188598940014 l -9.042331359035792 -3.6432836996605307 a30.748706197378922,30.748706197378922 0 0,0 0.20203117197839046,-0.4892345079144839 l 8.978278500171202 3.798392778028326" fill="#ff7e0b" stroke="none" /><path d="M 80.803312248108 91.48605970444005 l -6.677001334748812 -2.961322882996969 a28.304230283992894,28.304230283992894 0 0,0 0.20136125831258447,-0.44367284124553336 l 6.625037759472876 3.0758177330845733" fill="#ff5d08" stroke="none" /><path d="M 80.95270993114464 91.15688171328213 l -6.190528657770829 -2.874087441315166 a27.825175725430626,27.825175725430626 0 0,0 0.2054316905305436,-0.43269153187020604 l 6.140138773398535 2.980221388825904" fill="#ff5608" stroke="none" /><path d="M 81.26839172434947 90.50648371742162 l -8.766078220814745 -4.4428062502161385 a30.827647467751486,30.827647467751486 0 0,0 0.2439649622383712,-0.471262654556682 l 8.68830382541626 4.5930416270331555" fill="#ff7f0b" stroke="none" /><path d="M 81.43458229118936 90.18545643968196 l -5.5927131798729235 -2.9565683888802776 a27.32611550245887,27.32611550245887 0 0,0 0.2234129862663213,-0.413950332999309 l 5.54099209438813 3.0523997052120593" fill="#ff4f07" stroke="none" /><path d="M 81.6062741919709 89.86733742301443 l -10.983004073585906 -6.050273637912211 a33.53922603568578,33.53922603568578 0 0,0 0.2829151242470333,-0.5032744375175806 l 10.877231308046444 6.238431585364576" fill="#ffa30f" stroke="none" /><line stroke="#e1ed5e" stroke-width="0.3" x1="26.266209847984243" x2="21.928928074336255" y1="57.711370442889674" y2="55.22380399835377" /><path d="M 25.398753493254645 57.213857153982495 a86.0,86.0 0 0,1 29.58750427330803,-30.492523968695096" fill="none" id="id59" stroke="none" /><text fill="#e1ed5e" style="font-size:6.75px; font-family:Arial;" text-anchor="middle"><textPath startOffset="21.46611528233685" xlink:href="#id59">November</textPath></text><path d="M 81.78341655067845 89.55222093294921 l -4.698254754547075 -2.6945957134490515 a26.41612811864363,26.41612811864363 0 0,0 0.22961945838146716,-0.3924940866149556 l 4.651175621695283 2.7750692124178986" fill="#ff4306" stroke="none" /><path d="M 82.15384107792192 88.93136811851018 l -15.299661516219107 -9.489230818454814 a39.003475887638714,39.003475887638714 0 0,0 0.35878072342751455,-0.5675049430852326 l 15.134053196545631 9.751183409254262" fill="#ffe815" stroke="none" /><path d="M 82.34701348167596 88.62581576622439 l -5.367845999675762 -3.458614171345551 a27.385591802054634,27.385591802054634 0 0,0 0.2587330264877236,-0.39406814999343814 l 5.307516337830118 3.550500385316656" fill="#ff5007" stroke="none" /><path d="M 82.54541684631803 88.32363383020206 l -7.603994617788791 -5.086745683281781 a30.148536265094364,30.148536265094364 0 0,0 0.2922621133081878,-0.4288585880291688 l 7.515308038811863 5.2168822945813655" fill="#ff760a" stroke="none" /><path d="M 82.7489923806493 88.02491185347247 l -7.451347970396442 -5.172483296329609 a30.070676381987177,30.070676381987177 0 0,0 0.2988271749943951,-0.42266984690768844 l 7.361208175598168 5.299979643569083" fill="#ff750a" stroke="none" /><path d="M 82.95767976084542 87.72973835380427 l -7.523561956295077 -5.416872375335927 a30.27073302608203,30.27073302608203 0 0,0 0.30809463782343094,-0.42024073974744547 l 7.429204705958012 5.545575558754873" fill="#ff770b" stroke="none" /><path d="M 83.17141714833178 87.43820079747576 l -7.554425758099729 -5.639047583511677 a30.426993485929092,30.426993485929092 0 0,0 0.3169102639055717,-0.41701675949615363 l 7.456239553970049 5.768249118888857" fill="#ff790b" stroke="none" /><path d="M 83.39014120810768 87.1503855733568 l -6.943048417476556 -5.371237421575028 a29.778161126702543,29.778161126702543 0 0,0 0.317131629685822,-0.4027249644797717 l 6.849562707196763 5.489954780007848" fill="#ff710a" stroke="none" /><path d="M 83.6137871275137 86.86637796730984 l -7.557512582323104 -6.057379733555932 a30.685445042354335,30.685445042354335 0 0,0 0.33388906968975957,-0.4093085199516496 l 7.452125020556952 6.186572423115663" fill="#ff7d0b" stroke="none" /><path d="M 84.31358615837235 86.03803664274999 l -3.386559387781557 -3.014265628634656 a25.533716110095522,25.533716110095522 0 0,0 0.295043742515201,-0.3257946696357395 l 3.334172004650311 3.0721130855399514" fill="#ff3605" stroke="none" /><path d="M 84.80347519578584 85.50635884689758 l -5.841656976928277 -5.571463282160174 a29.072555936043667,29.072555936043667 0 0,0 0.34850482259962995,-0.3591648541276913 l 5.744887890625529 5.6711923318379895" fill="#ff6709" stroke="none" /><path d="M 85.05521093208273 85.24692304244772 l -5.494005981403302 -5.423528741726913 a28.720023687530574,28.720023687530574 0 0,0 0.3503353279567657,-0.34883087672231883 l 5.3998348532792235 5.5172954690993405" fill="#ff6209" stroke="none" /><path d="M 85.31137513191541 84.99185889309783 l -4.697531076662083 -4.79971473747604 a27.715955611627486,27.715955611627486 0 0,0 0.3438319455296728,-0.33076605918184826 l 4.614215887519983 4.879863883420202" fill="#ff5507" stroke="none" /><path d="M 85.83668400450813 84.49514656593479 l -9.500314331330733 -10.400176154490774 a35.08615051880842,35.08615051880842 0 0,0 0.4494185227196844,-0.4034923870839293 l 9.319884821015078 10.56216755034398" fill="#ffb710" stroke="none" /><path d="M 86.93701828274178 83.55741782278169 l -2.0462725808542728 -2.5756757374339263 a24.289580061278613,24.289580061278613 0 0,0 0.32960664601491085,-0.25726321534862406 l 2.0016333796799364 2.610517342005772" fill="#ff2503" stroke="none" /><path d="M 87.22198572758235 83.33499621200491 l -5.526205765694258 -7.207241912174708 a30.08203094827364,30.08203094827364 0 0,0 0.41363343519396006,-0.31154012786766616 l 5.401326176741908 7.301298629548229" fill="#ff750a" stroke="none" /><path d="M 89.00827224532344 82.1063720568725 l -3.930690975171933 -6.398841332220135 a28.509693864414636,28.509693864414636 0 0,0 0.4203658429021292,-0.2532657168430167 l 3.819963066052155 6.465553658521771" fill="#ff5f08" stroke="none" /><line stroke="#e1ed5e" stroke-width="0.3" x1="56.762969772571076" x2="54.21961505331055" y1="26.818313649435495" y2="22.513508569990535" /><path d="M 56.25429882871897 25.957352633546506 a86.0,86.0 0 0,1 42.265352541879196,-11.944610805530505" fill="none" id="id60" stroke="none" /><text fill="#e1ed5e" style="font-size:6.75px; font-family:Arial;" text-anchor="middle"><textPath startOffset="22.20632615414155" xlink:href="#id60">December</textPath></text><path d="M 91.23893434514133 80.91482961587045 l -3.1569070738110447 -6.877029777437451 a28.56700738947965,28.56700738947965 0 0,0 0.4486623742353419,-0.20130172912509878 l 3.0380625811089286 6.930351837079079" fill="#ff6008" stroke="none" /><path d="M 91.90106846888425 80.62456947434976 l -2.494802050471663 -5.968424800043241 a27.46885862148871,27.46885862148871 0 0,0 0.4378223840289788,-0.1785987435107943 l 2.391695796854304 6.0104844297376125" fill="#ff5107" stroke="none" /><path d="M 92.57280143429618 80.3572730644239 l -2.7062930070764017 -7.157338540958138 a28.651896289811788,28.651896289811788 0 0,0 0.46282045817311906,-0.17046068064767814 l 2.5826902231307134 7.202862489412138" fill="#ff6109" stroke="none" /><path d="M 93.94186890950719 79.89281104454417 l -3.3384530943077193 -11.080464615814538 a32.57246582043822,32.57246582043822 0 0,0 0.5382363939315032,-0.1571259628023313 l 3.147226482652795 11.136288907535567" fill="#ff960d" stroke="none" /><path d="M 95.33964822691252 79.52364482259891 l -1.6293652443872126 -7.159000668244019 a28.34207883828111,28.34207883828111 0 0,0 0.4766291121120714,-0.10417266296276373 l 1.5058934081216204 7.185986829302651" fill="#ff5d08" stroke="none" /><path d="M 96.04723909329186 79.375362276772 l -2.0376986759213778 -10.632263871224056 a31.825767913694996,31.825767913694996 0 0,0 0.5389237307027112,-0.09848486707212638 l 1.8543798241157732 10.66576421964692" fill="#ff8c0c" stroke="none" /><path d="M 97.11714578562143 79.19881850522333 l -1.135802548686137 -8.195362373724164 a29.2736939674039,29.2736939674039 0 0,0 0.4997232442610797,-0.06487841925823207 l 0.9945645759171994 8.213699116146532" fill="#ff6a09" stroke="none" /><path d="M 97.83486435360386 79.11191278185805 l -0.792825746364375 -7.6487648089913405 a28.6897448441,28.6897448441 0 0,0 0.4916532514087636,-0.046688400383120186 l 0.6610473678653751 7.661278753889641" fill="#ff6209" stroke="none" /><path d="M 98.55514903715128 79.0497635885617 l -1.1302046165531248 -16.387886722518783 a37.4268132547182,37.4268132547182 0 0,0 0.6430959339664074,-0.03879330295566802 l 0.8479466337470942 16.404913294854758" fill="#ffd413" stroke="none" /></svg>