<?xml version="1.0" encoding="utf-8" ?>
<svg baseProfile="full" height="200mm" version="1.1" viewBox="0,0,200,200" width="200mm" xmlns="http://www.w3.org/2000/svg" xmlns:ev="http://www.w3.org/2001/xml-events" xmlns:xlink="http://www.w3.org/1999/xlink"><defs /><rect fill="#1a1a1a" height="200" width="200" x="0" y="0" /><text alignment-baseline="middle" fill="#e1ed5e" style="dominant-baseline: central; font-size:9.0px; font-family:Arial;" text-anchor="middle" x="100.0" y="100.0">2023</text><line stroke="#e1ed5e" stroke-width="0.3" x1="100.0" x2="100.0" y1="15.0" y2="10.0" /><path d="M 100.0 14.0 a86.0,86.0 0 0,1 42.46469731375804,11.215312516191453" fill="none" id="id97" stroke="none" /><text fill="#e1ed5e" style="font-size:6.75px; font-family:Arial;" text-anchor="middle"><textPath startOffset="22.20632615414155" xlink:href="#id97">January</textPath></text><path d="M 101.08401301168833 79.027996857942 l 0.050987260143709176 -0.9864318678918583 a21.9877487183943,21.9877487183943 0 0,0 0.377810199913088,0.02279054301365966 l -0.0679595088964091 0.9854080554978946" fill="#ff0d01" stroke="none" /><path d="M 101.44485096284872 79.0497635885617 l 0.052447152256972135 -0.7604799852324378 a21.762286371201135,21.762286371201135 0 0,0 0.3734924528612907,0.028990202638757314 l -0.065529794480604 0.759464520405216" fill="#ff0a01" stroke="none" /><path d="M 102.16513564639614 79.11191278185805 l 0.17099155041082703 -1.6496363285560154 a22.658474638577168,22.658474638577168 0 0,0 0.38760373989796965,0.04355179640936857 l -0.19936199381852193 1.6464485786760459" fill="#ff1702" stroke="none" /><path d="M 103.2404852339499 79.25152402106235 l 0.08308936497307473 -0.5320122045881465 a21.53846153846154,21.53846153846154 0 0,0 0.3658161988319229,0.060362807241410604 l -0.09223476994387284 0.5305031344071112" fill="#ff0701" stroke="none" /><path d="M 103.59715602781102 79.31037775812273 l 0.07401060912604596 -0.4256839383308416 a21.43206988510664,21.43206988510664 0 0,0 0.36292136266702435,0.06632155929242797 l -0.08132709289597119 0.42434689768767514" fill="#ff0600" stroke="none" /><path d="M 104.307194497241 79.44645832069477 l 0.16519591862333777 -0.7882999481102614 a21.80542318052093,21.80542318052093 0 0,0 0.366702088052966,0.08014687323064892 l -0.1787407308298317 0.7853395767837419" fill="#ff0b01" stroke="none" /><path d="M 104.66035177308747 79.52364482259891 l 0.22727016306326991 -0.9985650883659223 a22.024101539263587,22.024101539263587 0 0,0 0.36893129702119787,0.08731411831277527 l -0.2444251470469913 0.9945050579122784" fill="#ff0e01" stroke="none" /><path d="M 105.01212808612495 79.60689891045804 l 0.24923794061349774 -1.0140871164786915 a22.04426636010614,22.04426636010614 0 0,0 0.3677100267335665,0.0937374732196617 l -0.26665685603208933 1.009646647090162" fill="#ff0e01" stroke="none" /><path d="M 105.71112130821622 79.79150937346287 l 0.3721731671876061 -1.3169144121907055 a22.368494221913284,22.368494221913284 0 0,0 0.369623157609567,0.10790313544057814 l -0.39478654252060025 1.310312947831424" fill="#ff1302" stroke="none" /><path d="M 106.40334571778207 80.00007090966166 l 0.14308881466088835 -0.44691732618640556 a21.469264856266335,21.469264856266335 0 0,0 0.35098892471349563,0.11571553009394528 l -0.1507605616168015 0.4443880718332241" fill="#ff0601" stroke="none" /><path d="M 106.74666289553966 80.11325718540242 l 0.39720823542229133 -1.1708274363175213 a22.23637019857369,22.23637019857369 0 0,0 0.36141301490877703,0.12608990437110032 l -0.41730325439434207 1.1638166787742135" fill="#ff1101" stroke="none" /><path d="M 107.76421540070413 80.48803036053334 l 0.3982513822413477 -1.0008311823064682 a22.0771570075593,22.0771570075593 0 0,0 0.35188478876475543,0.14354264063800615 l -0.4154200405944906 0.9938276554848826" fill="#ff0f01" stroke="none" /><path d="M 108.43124777332544 80.76684994638697 l 0.3315575869207535 -0.7563408159864261 a21.825821931999705,21.825821931999705 0 0,0 0.34278792153968707,0.15379894836677904 l -0.3445276269272208 0.7505215371031159" fill="#ff0b01" stroke="none" /><path d="M 108.76106565485865 80.91482961587045 l 0.6456257614793318 -1.4064359459951148 a22.547544730879512,22.547544730879512 0 0,0 0.3513356151257485,0.16495678219780877 l -0.6697395879046782 1.3951141811573031" fill="#ff1502" stroke="none" /><path d="M 110.05341064243156 81.56283822128135 l 0.22640001865585208 -0.41519976842936196 a21.472914174191434,21.472914174191434 0 0,0 0.32298934881193947,0.17974322292069614 l -0.2335134565398266 0.41124114794848593" fill="#ff0601" stroke="none" /><line stroke="#e1ed5e" stroke-width="0.3" x1="143.23703022742887" x2="145.7803849466894" y1="26.81831364943548" y2="22.513508569990506" /><path d="M 143.74570117128098 25.957352633546492 a86.0,86.0 0 0,1 28.547481713284135,27.462654790039103" fill="none" id="id98" stroke="none" /><text fill="#e1ed5e" style="font-size:6.75px; font-family:Arial;" text-anchor="middle"><textPath startOffset="19.985693538727396" xlink:href="#id98">February</textPath></text><path d="M 110.68208982089419 81.91981866633111 l 0.5679332149996744 -0.9612665391113618 a22.11650414057226,22.11650414057226 0 0,0 0.32610041164646947,0.19647184925458783 l -0.5843956928637815 0.9513480803981594" fill="#ff0f01" stroke="none" /><path d="M 110.99172775467656 82.1063720568725 l 0.39869872089822483 -0.6490486966544776 a21.761724937674195,21.761724937674195 0 0,0 0.31749408248791794,0.19881476532697112 l -0.409811955758406 0.6420895900045622" fill="#ff0a01" stroke="none" /><path d="M 111.2981086023043 82.29822771554956 l 0.25450578494399795 -0.39875731493987526 a21.47305453257317,21.47305453257317 0 0,0 0.3098592181191424,0.20154105475958548 l -0.2613320288474205 0.39431733602076174" fill="#ff0601" stroke="none" /><path d="M 111.60114157652 82.49532879139004 l 0.6371373596199967 -0.9613605627779482 a22.153324822713998,22.153324822713998 0 0,0 0.31604914857962585,0.21339779593396274 l -0.6535912026061644 0.9502508545453153" fill="#ff1001" stroke="none" /><path d="M 112.19680574252982 82.90503203632743 l 0.2408378042959506 -0.33755678624316293 a21.414665445771536,21.414665445771536 0 0,0 0.29822948611107464,0.2166764047648785 l -0.24661260676081392 0.3333611466616096" fill="#ff0500" stroke="none" /><path d="M 112.48926042617603 83.11751280151076 l 0.2541531705013278 -0.3435541818353981 a21.427344486254903,21.427344486254903 0 0,0 0.294629911197629,0.22190914079541874 l -0.26002923545733975 0.339128451534132" fill="#ff0500" stroke="none" /><path d="M 112.77801427241765 83.33499621200491 l 0.31152834723118983 -0.40629326090847734 a21.511980590440928,21.511980590440928 0 0,0 0.2919149591579943,0.2278442559011719 l -0.3184758615486145 0.40087061578408134" fill="#ff0701" stroke="none" /><path d="M 113.06298171725822 83.55741782278167 l 0.4746143059613254 -0.597404551056088 a21.762988163109807,21.762988163109807 0 0,0 0.2913096195110178,0.23555211975179896 l -0.4848273240368344 0.5891463340401595" fill="#ff0a01" stroke="none" /><path d="M 113.6212207817346 84.01681056812373 l 0.05775008443256388 -0.06776415667751719 a21.08903400014704,21.08903400014704 0 0,0 0.2742640936185426,0.2378391193427429 l -0.05890797669787064 0.06676004391510303" fill="#ff0100" stroke="none" /><path d="M 113.89432698308785 84.25364557470407 l 0.12202587711140629 -0.1382911682151005 a21.18443091359939,21.18443091359939 0 0,0 0.27135138808524184,0.2436219554425043 l -0.12438825279263814 0.13617020400329877" fill="#ff0200" stroke="none" /><path d="M 114.42810811169701 84.74124197986012 l 0.434433433655234 -0.4594444807791246 a21.632314509714806,21.632314509714806 0 0,0 0.26836097186794866,0.25816304231484727 l -0.44227764913560097 0.4518983517019754" fill="#ff0801" stroke="none" /><path d="M 114.68862486808459 84.99185889309783 l 0.5294569060573353 -0.5409739868432304 a21.756952752695216,21.756952752695216 0 0,0 0.2653977329853114,0.26425803077675064 l -0.5386904392099692 0.531780105416361" fill="#ff0a01" stroke="none" /><path d="M 114.94478906791727 85.2469230424477 l 0.3355536341157087 -0.3312491440995159 a21.471510590374088,21.471510590374088 0 0,0 0.2573879298987768,0.26526088679847337 l -0.34120582771759456 0.3254240617509282" fill="#ff0601" stroke="none" /><path d="M 115.19652480421416 85.50635884689758 l 0.4870596385736584 -0.464531707913164 a21.673065226545113,21.673065226545113 0 0,0 0.2551566646222659,0.2721833395350807 l -0.4949836251663872 0.4560789515000284" fill="#ff0901" stroke="none" /><path d="M 115.68641384162765 86.03803664274999 l 0.7634725037578113 -0.6795418780452387 a22.022089735792054,22.022089735792054 0 0,0 0.24959221610177448,0.2853270493815121 l -0.7750565834374339 0.6662992724607788" fill="#ff0e01" stroke="none" /><path d="M 116.15771136456269 86.58626213691792 l 0.36530709506625186 -0.303269039914263 a21.47478561928123,21.47478561928123 0 0,0 0.23366766173055292,0.2864489241063322 l -0.37047324887321365 0.29693594619982994" fill="#ff0601" stroke="none" /><path d="M 116.60985879189232 87.15038557335679 l 0.9572896954389383 -0.7405724296099007 a22.210310325698284,22.210310325698284 0 0,0 0.2313299639675724,0.30440311638774503 l -0.9698955996306241 0.723984537341122" fill="#ff1101" stroke="none" /><path d="M 116.82858285166822 87.43820079747576 l 0.3792749578980022 -0.2831121257003676 a21.473288463209396,21.473288463209396 0 0,0 0.21855450366036488,0.2981080973762464 l -0.3840920740719935 0.2765415846526275" fill="#ff0601" stroke="none" /><path d="M 117.04232023915458 87.72973835380427 l 0.918464538533165 -0.6612832080611943 a22.1317564180541,22.1317564180541 0 0,0 0.21993420314391954,0.31108133312958697 l -0.9297113614809676 0.6453753745998142" fill="#ff1001" stroke="none" /><path d="M 117.2510076193507 88.02491185347247 l 0.6943817762660854 -0.48201723410065406 a21.845284960933583,21.845284960933583 0 0,0 0.21176978850194464,0.31074603360720676 l -0.7025760304367635 0.46999317722304085" fill="#ff0b01" stroke="none" /><path d="M 117.45458315368197 88.32363383020206 l 52.36374946104589 -35.02909850939381 a84.0,84.0 0 0,0 0.7936134585683003,1.208727744089304 l -52.95895955497212 34.12255270132683" fill="#4dd2ff" stroke="none" /><line stroke="#e1ed5e" stroke-width="0.3" x1="172.23445277983987" x2="176.4835382374775" y1="55.19839476539836" y2="52.563006222186495" /><path d="M 173.08426987136738 54.67131705675599 a86.0,86.0 0 0,1 12.851231095245387,41.99856678651699" fill="none" id="id99" stroke="none" /><text fill="#e1ed5e" style="font-size:6.75px; font-family:Arial;" text-anchor="middle"><textPath startOffset="22.20632615414155" xlink:href="#id99">March</textPath></text><path d="M 117.84615892207809 88.93136811851018 l 0.402089346306405 -0.2493858189410447 a21.47314810482766,21.47314810482766 0 0,0 0.19211739475986803,0.31579048311752694 l -0.40632253935249696 0.2424275626164363" fill="#ff0601" stroke="none" /><path d="M 118.03404312379186 89.2402003453031 l 0.40801002542515374 -0.24343438132798326 a21.475113122171944,21.475113122171944 0 0,0 0.18667019714799107,0.31907987695936496 l -0.41213989704347215 0.236375092014723" fill="#ff0601" stroke="none" /><path d="M 118.21658344932153 89.55222093294921 l 0.6597890995800852 -0.37840963770392655 a21.76060207062032,21.76060207062032 0 0,0 0.18355830369935475,0.32652974029521575 l -0.666205044571873 0.3669963874739169" fill="#ff0a01" stroke="none" /><path d="M 118.56541770881063 90.18545643968196 l 0.899170583493931 -0.4753434045100802 a22.01708362017685,22.01708362017685 0 0,0 0.17423960033325278,0.33657544849293936 l -0.9072196169873001 0.45979523375679604" fill="#ff0e01" stroke="none" /><path d="M 118.73160827565052 90.50648371742162 l 0.4191597512774465 -0.2124377077074954 a21.46991986204776,21.46991986204776 0 0,0 0.1642346499300342,0.33108703252476746 l -0.4227544141608888 0.2051910866837781" fill="#ff0601" stroke="none" /><path d="M 118.89224826269711 90.83032412892265 l 0.5058826467343438 -0.24553879638115708 a21.562322463356438,21.562322463356438 0 0,0 0.1591934009373931,0.33530190175301866 l -0.5100342415134931 0.2367944789875981" fill="#ff0701" stroke="none" /><path d="M 119.47837535516314 92.15188598940014 l 0.10106947784938736 -0.04072232774503616 a21.10896489035337,21.10896489035337 0 0,0 0.13289244351549712,0.3381967734752067 l -0.10175547124658492 0.038976549374045065" fill="#ff0100" stroke="none" /><path d="M 119.85752413597 93.16781622104841 l 0.44289457776677577 -0.15238239819246052 a21.46837591984868,21.46837591984868 0 0,0 0.11722009910927689,0.35047317628090646 l -0.4454519706478227 0.14473611898924008" fill="#ff0601" stroke="none" /><path d="M 119.97218684219823 93.5106431181261 l 0.4474543019513048 -0.14538671586812513 a21.4704812955747,21.4704812955747 0 0,0 0.11118081436909755,0.35247356444733613 l -0.44989060008860854 0.13766298499436985" fill="#ff0601" stroke="none" /><path d="M 120.08093135843002 93.85539295169968 l 0.4684123491376032 -0.1433304945197946 a21.48985075225409,21.48985075225409 0 0,0 0.10519190139435089,0.35465479780639264 l -0.4708101476436564 0.13524630996687206" fill="#ff0601" stroke="none" /><path d="M 120.18372546131832 94.20196356495316 l 0.5641177939054117 -0.1620501393060561 a21.586931966287253,21.586931966287253 0 0,0 0.09951907605811802,0.35802306655818805 l -0.5668236405298929 0.15231576932891616" fill="#ff0801" stroke="none" /><path d="M 120.37134235888165 94.90015583598534 l 1.4310966607187159 -0.35826652091609446 a22.475260164286144,22.475260164286144 0 0,0 0.09072213654933771,0.37610182590605684 l -1.437051597528873 0.3335794633506315" fill="#ff1402" stroke="none" /><path d="M 120.53481517161879 95.60439243477599 l 0.5112990599508798 -0.10944681007493305 a21.52288175808899,21.52288175808899 0 0,0 0.07442889653384246,0.3629417323836065 l -0.5131072523997191 0.10062942152791474" fill="#ff0701" stroke="none" /><path d="M 120.83666639777658 97.38593545837742 l 0.9701318575222843 -0.12170791819741651 a21.97773648716389,21.97773648716389 0 0,0 0.043860913236056315,0.37577351919821667 l -0.9720831237619295 0.1049906606743471" fill="#ff0d01" stroke="none" /><line stroke="#e1ed5e" stroke-width="0.3" x1="184.98032266829074" x2="189.97916517819016" y1="98.17113171792111" y2="98.06355123074" /><path d="M 185.9800911702706 98.14961562048488 a86.0,86.0 0 0,1 -9.607161424134198,41.387399972396054" fill="none" id="id100" stroke="none" /><text fill="#e1ed5e" style="font-size:6.75px; font-family:Arial;" text-anchor="middle"><textPath startOffset="21.466115282336823" xlink:href="#id100">April</textPath></text><path d="M 120.64145759157962 103.86396538481128 l 50.912095756998674 9.53045950366849 a72.79643957571666,72.79643957571666 0 0,0 -0.24116443716264882,1.22969226941968 l -50.74050138686036 -10.405415500156115" fill="#3fffc0" stroke="none" /><path d="M 120.5718875245553 104.21870165774334 l 0.2506111849684396 0.051393136396133056 a21.255826543775107,21.255826543775107 0 0,0 -0.0765877403876782,0.3577924257195941 l -0.24968940585631835 -0.05569938153189615" fill="#ff0300" stroke="none" /><path d="M 120.49622156327973 104.57218783832717 l 2.3811318762686624 0.5311702048358727 a23.439657926572515,23.439657926572515 0 0,0 -0.09123544636664137,0.39303991509401587 l -2.371635863971468 -0.5720787772784535" fill="#ff2203" stroke="none" /><line stroke="#e1ed5e" stroke-width="0.3" x1="174.80103733775053" x2="179.2010983576182" y1="140.37084112569926" y2="142.7455964860345" /><path d="M 175.68104954172406 140.8457921977663 a86.0,86.0 0 0,1 -30.038265399797805,32.042727171017184" fill="none" id="id101" stroke="none" /><text fill="#e1ed5e" style="font-size:6.75px; font-family:Arial;" text-anchor="middle"><textPath startOffset="22.206326154141568" xlink:href="#id101">May</textPath></text><path d="M 118.30583269289576 110.29060199501025 l 0.09314603573859537 0.052361932793741565 a21.106854836014623,21.106854836014623 0 0,0 -0.18076312903612973,0.3151757520439825 l -0.09223091055008609 -0.05395753069603918" fill="#ff0100" stroke="none" /><path d="M 113.20401910651253 116.32954008644616 l 0.16756137967988266 0.20722480362614074 a21.26649378078694,21.26649378078694 0 0,0 -0.2866343676583236,0.22771967711047095 l -0.16396951930420797 -0.21007839474173767" fill="#ff0300" stroke="none" /><path d="M 112.92097659922987 116.55440617244103 l 0.6552159811943643 0.8394652989320082 a22.06489904222114,22.06489904222114 0 0,0 -0.3014183639954605,0.23111474837331253 l -0.6406688887054101 -0.8506193891326921" fill="#ff0f01" stroke="none" /><path d="M 112.63410532772338 116.77436683061366 l 0.7035226134310005 0.9340706037512625 a22.169372464358997,22.169372464358997 0 0,0 -0.3067977540253122,0.2269616439295092 l -0.6873398889871241 -0.9460421964205407" fill="#ff1001" stroke="none" /><path d="M 112.34349029814194 116.9893568818739 l 1.9898591536900994 2.738806163423122 a24.385350595186377,24.385350595186377 0 0,0 -0.34171153718987085,0.24380210878094585 l -1.9424202886513438 -2.7726525340482873" fill="#ff2f04" stroke="none" /><line stroke="#e1ed5e" stroke-width="0.3" x1="143.8653032363475" x2="146.44561519142675" y1="172.8068346515853" y2="177.08958963109032" /><path d="M 144.38136562736335 173.6633856474863 a86.0,86.0 0 0,1 -40.68145358897372,12.25698825130547" fill="none" id="id102" stroke="none" /><text fill="#e1ed5e" style="font-size:6.75px; font-family:Arial;" text-anchor="middle"><textPath startOffset="21.466115282336833" xlink:href="#id102">June</textPath></text><path d="M 109.89434966115114 118.52300852407294 l 0.5359139053986958 1.0032734012671174 a22.13743625390163,22.13743625390163 0 0,0 -0.33765820127926033,0.17664681219717088 l -0.5185648015929398 -1.0123496324090049" fill="#ff1001" stroke="none" /><path d="M 108.2653958097858 119.30500536409082 l 1.065383851819562 2.4883552400287754 a23.706834784817232,23.706834784817232 0 0,0 -0.376519333605472,0.1573851119837094 l -1.022393058716629 -2.506325395032458" fill="#ff2603" stroke="none" /><path d="M 107.93186726928326 119.44442032107085 l 0.5943311842326033 1.456961515340989 a22.57352038872588,22.57352038872588 0 0,0 -0.3610461780053448,0.1436677253722455 l -0.5691639301853924 -1.4669760851193032" fill="#ff1602" stroke="none" /><path d="M 107.59598834532513 119.57807347666477 l 0.3782196379808446 0.9748319146992559 a22.045632515021687,22.045632515021687 0 0,0 -0.3549659455002091,0.13421774735960373 l -0.3613834717203607 -0.9811979121654906" fill="#ff0e01" stroke="none" /><path d="M 107.2578585660854 119.70592522655815 l 0.13003479332060264 0.35305949967124034 a21.376244678078027,21.376244678078027 0 0,0 -0.34637704434012784,0.12419848459541744 l -0.12393818835074003 -0.3552455253066179" fill="#ff0500" stroke="none" /><path d="M 106.2309692047433 120.05430185196036 l 0.32045448538426996 1.03137903086066 a22.080015639933965,22.080015639933965 0 0,0 -0.363925998939615,0.10964791815001523 l -0.30265351200440915 -1.0367423181164008" fill="#ff0f01" stroke="none" /><path d="M 104.83641907484287 120.43548508189849 l 0.30454341009316865 1.286797570153005 a22.322344385998917,22.322344385998917 0 0,0 -0.374675076875142,0.08527482765946057 l -0.2823481838251646 -1.2918491313901501" fill="#ff1202" stroke="none" /><path d="M 104.13013068566511 120.58985236759428 l 0.19356223574752876 0.9649616831292335 a21.98418361549824,21.98418361549824 0 0,0 -0.3716712928906663,0.07123168786762873 l -0.17692332828515808 -0.9681505693453304" fill="#ff0d01" stroke="none" /><path d="M 103.7750983002368 120.6578951692458 l 0.1847619910392138 1.0110448890588586 a22.027788286090484,22.027788286090484 0 0,0 -0.3735818787755741,0.06495199822443104 l -0.16733114079158978 -1.0140754658042959" fill="#ff0e01" stroke="none" /><path d="M 103.41894727170886 120.7198165907248 l 0.6626816818635277 4.0160440670915865 a25.07035096279166,25.07035096279166 0 0,0 -0.42639191669794596,0.06659364819555406 l -0.5934539015570647 -4.026856022634246" fill="#ff3905" stroke="none" /><path d="M 102.34483914955558 120.86867818915974 l 0.05873708419504091 0.5227502739657881 a21.52603982167802,21.52603982167802 0 0,0 -0.3685743925735791,0.03820424280002064 l -0.04973009501585914 -0.5236838852215672" fill="#ff0701" stroke="none" /><path d="M 101.62511606390274 120.93702456842531 l 0.15681710521882394 2.0203379054853574 a23.026414779069224,23.026414779069224 0 0,0 -0.39543726928965534,0.02727166930524426 l -0.12201707515023828 -2.022737919306887" fill="#ff1c02" stroke="none" /><path d="M 100.90346689309514 120.98055641714683 l 0.0416557997032511 0.967342425555147 a21.968238903333177,21.968238903333177 0 0,0 -0.3779370297773063,0.013016915471328721 l -0.024998418251292506 -0.9679161394525696" fill="#ff0d01" stroke="none" /><line stroke="#e1ed5e" stroke-width="0.3" x1="102.19456741930631" x2="102.32365962044197" y1="184.97166512339345" y2="189.96999836594603" /><path d="M 102.22038585953345 185.97133177190398 a86.0,86.0 0 0,1 -42.740103519485714,-10.115201625700543" fill="none" id="id103" stroke="none" /><text fill="#e1ed5e" style="font-size:6.75px; font-family:Arial;" text-anchor="middle"><textPath startOffset="22.20632615414155" xlink:href="#id103">July</textPath></text><path d="M 100.54218724476979 120.99299961872073 l 0.05222863536999691 2.022245512017128 a23.02291985536403,23.02291985536403 0 0,0 -0.3962576805761442,0.006821935328575661 l -0.0174112649011848 -2.0228449246248634" fill="#ff1c02" stroke="none" /><path d="M 100.18074693466247 120.99922214144158 l 0.02101238334050208 2.4412237270431922 a23.441314155476984,23.441314155476984 0 0,0 -0.40351863600591337,0.0 l 0.021012383340500398 -2.4412237270431922" fill="#ff2203" stroke="none" /><path d="M 98.73552117531835 120.96189622390904 l -0.09032249172508384 1.4973209999801813 a22.500042775887767,22.500042775887767 0 0,0 -0.38639777662153063,-0.026648252966225115 l 0.11608302912554454 -1.495544402497671" fill="#ff1502" stroke="none" /><path d="M 98.37488393609728 120.93702456842531 l -0.08124729475302453 1.0467416107358083 a22.049890052600976,22.049890052600976 0 0,0 -0.37816158074373796,-0.03262937240751605 l 0.0992531932383042 -1.0451879860496287" fill="#ff0e01" stroke="none" /><path d="M 98.01472825383883 120.90594882070398 l -0.48658842379860917 5.124030352192837 a26.147082216593034,26.147082216593034 0 0,0 -0.44769706947430593,-0.04640563177388428 l 0.5747180898785084 -5.114895351963192" fill="#ff4806" stroke="none" /><path d="M 96.58105272829116 120.7198165907248 l -0.10675607650908847 0.6469729274614172 a21.655721609175426,21.655721609175426 0 0,0 -0.3672717868867991,-0.06385490786635742 l 0.11787683486793754 -0.6450394410740536" fill="#ff0901" stroke="none" /><path d="M 96.22490169976321 120.6578951692458 l -0.2189796042887847 1.1982887198770147 a22.21813296617363,22.21813296617363 0 0,0 -0.3756265117497088,-0.07198971497546257 l 0.23957373061018858 -1.194341806553084" fill="#ff1101" stroke="none" /><path d="M 95.86986931433489 120.58985236759428 l -0.4162842241587978 2.07529285892509 a23.11663246823556,23.11663246823556 0 0,0 -0.3894696166790672,-0.0816171449172534 l 0.4519453022672518 -2.0678197332812953" fill="#ff1e03" stroke="none" /><path d="M 94.11515582081647 120.15858648285463 l -0.19297421089789432 0.6610348890980394 a21.688626292466765,21.688626292466765 0 0,0 -0.35747506332552453,-0.10770430416732153 l 0.2043242486636647 -0.6576152158249923" fill="#ff0901" stroke="none" /><path d="M 93.76903079525671 120.05430185196036 l -0.2778768690976442 0.8943434684799438 a21.936517909061138,21.936517909061138 0 0,0 -0.3596321371009555,-0.11514285349115119 l 0.29323035128954006 -0.889427768329086" fill="#ff0d01" stroke="none" /><path d="M 93.08242187328487 119.8279376855182 l -1.5461218873305134 4.43166782863104 a25.693631071335478,25.693631071335478 0 0,0 -0.4163352414272259,-0.14928300507741835 l 1.622176689387466 -4.4043972825136635" fill="#ff4206" stroke="none" /><path d="M 92.06813273071674 119.44442032107085 l -0.5103456469741469 1.2510768185977033 a22.351164640381775,22.351164640381775 0 0,0 -0.35498815814468865,-0.14838507889487246 l 0.5318052646162978 -1.2421066966828578" fill="#ff1302" stroke="none" /><path d="M 91.7346041902142 119.30500536409082 l -0.32557871234533897 0.7604353055686803 a21.82720212275343,21.82720212275343 0 0,0 -0.3441207310909657,-0.15085241573419525 l 0.3386201180940479 -0.7547183365400328" fill="#ff0b01" stroke="none" /><path d="M 90.7491055286396 118.85261126421891 l -0.16393327546379713 0.33408340405969406 a21.372136856105925,21.372136856105925 0 0,0 -0.3288725004533277,-0.1649034990084154 l 0.16965968359988534 -0.3312120641419765" fill="#ff0500" stroke="none" /><path d="M 90.10565033884886 118.52300852407294 l -0.5798845309940447 1.0855899051915114 a22.23076054191703,22.23076054191703 0 0,0 -0.33597791765786683,-0.18320194906042267 l 0.5984852605205521 -1.0754473043713229" fill="#ff1101" stroke="none" /><line stroke="#e1ed5e" stroke-width="0.3" x1="58.666819895761336" x2="56.23545636021788" y1="174.27360380694188" y2="178.64263932499728" /><path d="M 58.180547188652646 175.14741091055294 a86.0,86.0 0 0,1 -31.652253787137756,-30.449443065178592" fill="none" id="id104" stroke="none" /><text fill="#e1ed5e" style="font-size:6.75px; font-family:Arial;" text-anchor="middle"><textPath startOffset="22.20632615414155" xlink:href="#id104">August</textPath></text><path d="M 89.7882731507175 118.34994917583269 l -0.9146783868007939 1.643630128160598 a22.880998816979353,22.880998816979353 0 0,0 -0.3425081043900885,-0.19448504058512187 l 0.9428352581120896 -1.627641921780843" fill="#ff1a02" stroke="none" /><path d="M 89.1626897886671 117.98757091392108 l -1.0686720586294576 1.7737624985784306 a23.07081949243736,23.07081949243736 0 0,0 -0.338394870394183,-0.20786976798522913 l 1.0990461289559492 -1.7551042637648233" fill="#ff1d02" stroke="none" /><path d="M 88.54995079064634 117.60387380957326 l -1.541856594530824 2.3705268358502654 a23.827847102936165,23.827847102936165 0 0,0 -0.3419015812700175,-0.2265937247423737 l 1.5824328745408034 -2.343635090016573" fill="#ff2803" stroke="none" /><path d="M 88.24862548938628 117.40417183066458 l -1.1952837416698747 1.770254501516671 a23.13600192491495,23.13600192491495 0 0,0 -0.3281380424136893,-0.2256963376945513 l 1.2255786687064543 -1.7494173744570187" fill="#ff1e03" stroke="none" /><path d="M 87.95078237400918 117.19931262002967 l -0.5759344072644533 0.8221011709345959 a22.003768288362952,22.003768288362952 0 0,0 -0.3083384615052614,-0.2199913053900954 l 0.5900001966186017 -0.8120656037002812" fill="#ff0e01" stroke="none" /><path d="M 87.07902340077011 116.55440617244103 l -0.4420987862742698 0.5664187083787203 a21.718527306388978,21.718527306388978 0 0,0 -0.2927269725374695,-0.23256001090287534 l 0.45178325152909743 -0.5587247834707144" fill="#ff0a01" stroke="none" /><path d="M 86.79598089348748 116.32954008644616 l -1.078043908082662 1.3332274870234195 a22.714547812080177,22.714547812080177 0 0,0 -0.30191946718816476,-0.24845916692317918 l 1.1008335038155155 -1.3144732012430598" fill="#ff1802" stroke="none" /><path d="M 86.51685102203217 116.09983520530335 l -1.7098192902576592 2.0416453789080657 a23.66304296971601,23.66304296971601 0 0,0 -0.3100247642956879,-0.2642098299764125 l 1.7447095311304037 -2.0119111587087017" fill="#ff2503" stroke="none" /><path d="M 86.24171649860922 115.8653595955263 l -1.7025351296707565 1.9632777630663052 a23.59866993723975,23.59866993723975 0 0,0 -0.30459999751058336,-0.26877408256865437 l 1.7360774800879275 -1.933680538725362" fill="#ff2403" stroke="none" /><path d="M 84.9287848128048 114.62390073753433 l -1.4713079455768459 1.4276394493220426 a23.050097916680592,23.050097916680592 0 0,0 -0.27384992477549275,-0.2871305512895325 l 1.495664421731296 -1.4021017814500099" fill="#ff1d02" stroke="none" /><path d="M 84.43433777217949 114.09645910891817 l -2.4514172792806606 2.2200342607019175 a24.30726454881464,24.30726454881464 0 0,0 -0.2781921868363941,-0.31255187100581583 l 2.489268315765393 -2.1775082199552376" fill="#ff2e04" stroke="none" /><path d="M 83.95833913139862 113.55231037782056 l -0.536784191747086 0.45348583491768507 a21.70269955954203,21.70269955954203 0 0,0 -0.2386304829241448,-0.28744578917755953 l 0.5445106745647672 -0.4441787886263644" fill="#ff0901" stroke="none" /><path d="M 83.50135304334701 112.99209946851258 l -0.5523588399765615 0.43496300091407847 a21.703059812721815,21.703059812721815 0 0,0 -0.2285985179086938,-0.2954943997873084 l 0.5597641751033238 -0.4253906070135174" fill="#ff0901" stroke="none" /><path d="M 83.28015986056508 112.70617746262583 l -0.5597865252909889 0.4254075919516764 a21.703087884398162,21.703087884398162 0 0,0 -0.22347848728226213,-0.29938595404703466 l 0.5670262792683362 -0.4157087583953337" fill="#ff0901" stroke="none" /><path d="M 82.85270091963577 112.12312394758628 l -1.5385392715921702 1.0877457843550253 a22.88422238114653,22.88422238114653 0 0,0 -0.2246348972356923,-0.3236033235303329 l 1.5570350759899965 -1.06110119863768" fill="#ff1a02" stroke="none" /><path d="M 82.6465618267979 111.8261652097733 l -1.540464580210696 1.0498085995147883 a22.864169847009364,22.864169847009364 0 0,0 -0.21883938745764275,-0.3271351917311742 l 1.5583070730790691 -1.0231364935777931" fill="#ff1a02" stroke="none" /><path d="M 82.24976979558568 111.22182372390057 l -0.5942290072219751 0.37567586977069667 a21.70302238382002,21.70302238382002 0 0,0 -0.19691396143788412,-0.3174880046081571 l 0.6006076083278151 -0.36539153379727535" fill="#ff0901" stroke="none" /><line stroke="#e1ed5e" stroke-width="0.3" x1="26.63291911575756" x2="22.317208475507996" y1="142.92168965132927" y2="145.44649492493687" /><path d="M 25.769776987707644 143.4266507060508 a86.0,86.0 0 0,1 -11.730757126820373,-40.83630448921669" fill="none" id="id105" stroke="none" /><text fill="#e1ed5e" style="font-size:6.75px; font-family:Arial;" text-anchor="middle"><textPath startOffset="21.46611528233685" xlink:href="#id105">September</textPath></text><path d="M 81.35079622478065 109.6543875284942 l -1.7149168788337876 0.8877843969626726 a22.931088044807744,22.931088044807744 0 0,0 -0.17844899578717704,-0.35209679814872236 l 1.7299445444072314 -0.8581333871112653" fill="#ff1b02" stroke="none" /><path d="M 81.02952815118164 109.00673069616217 l -1.5059397741941138 0.7149845348549143 a22.667050535701158,22.667050535701158 0 0,0 -0.16430954537657716,-0.3539081430777677 l 1.5180239364105177 -0.6889563244983196" fill="#ff1702" stroke="none" /><path d="M 80.87730276802145 108.67885076344099 l -0.7668105689175528 0.34801756314666904 a21.842089468442758,21.842089468442758 0 0,0 -0.1524358542713003,-0.343702609491537 l 0.772687507920133 -0.33476661716243616" fill="#ff0b01" stroke="none" /><path d="M 80.73074385275274 108.34839909993369 l -2.177208589115898 0.943274929081248 a23.37276312183776,23.37276312183776 0 0,0 -0.15676336916835665,-0.37054229756334983 l 2.1931229394765617 -0.9056581058517393" fill="#ff2103" stroke="none" /><path d="M 80.58989483394504 108.01547362559985 l -2.1839162954235154 0.9018561886567449 a23.36280235534732,23.36280235534732 0 0,0 -0.15029778675375075,-0.3730267808910263 l 2.199116696434654 -0.8641300399229132" fill="#ff2103" stroke="none" /><path d="M 80.45479744820244 107.68017299344265 l -1.354318185065839 0.5321714073776285 a22.45512341511994,22.45512341511994 0 0,0 -0.138265519524226,-0.3609676413713061 l 1.363277984183574 -0.5087801991731644" fill="#ff1402" stroke="none" /><path d="M 80.32549172779594 107.34259656027581 l -1.1955289022884126 0.4461756443516856 a22.27607290615371,22.27607290615371 0 0,0 -0.13097878876137276,-0.3603973735199081 l 1.2030319520550097 -0.4255304738256604" fill="#ff1202" stroke="none" /><path d="M 80.20201598880116 107.00284435728193 l -0.09738636852391203 0.03444702152037749 a21.103299090344013,21.103299090344013 0 0,0 -0.11818768906532773,-0.34350874685478067 l 0.0979648885324682 -0.032765571576299946" fill="#ff0100" stroke="none" /><path d="M 80.0844068197444 106.66101706037122 l -1.0277328337383826 0.3437379884733701 a22.083693029535414,22.083693029535414 0 0,0 -0.1174723636941689,-0.3615427598146091 l 1.0334974484488006 -0.3259963286809576" fill="#ff0f01" stroke="none" /><path d="M 79.97269907076064 106.31721596034903 l -1.0874954112127582 0.3430289180150891 a22.14031360072719,22.14031360072719 0 0,0 -0.11151678225120634,-0.3644432967147828 l 1.0932389659700947 -0.3242586487482585" fill="#ff1001" stroke="none" /><path d="M 79.86692584326677 105.97154293290107 l -1.3089810721012052 0.38824854115947616 a22.365345515549702,22.365345515549702 0 0,0 -0.10629648385896252,-0.37003200510164536 l 1.3154701928462718 -0.3656590605532349" fill="#ff1302" stroke="none" /><path d="M 79.76711848015287 105.62410040840567 l -1.185134394047818 0.3294298354409731 a22.230068107233805,22.230068107233805 0 0,0 -0.09930692629490297,-0.3695580158266956 l 1.190629396684496 -0.3089808864387386" fill="#ff1101" stroke="none" /><path d="M 79.67330655649465 105.27499134158121 l -1.4139847745999117 0.3669439628177877 a22.46082196541837,22.46082196541837 0 0,0 -0.09389552572365518,-0.37506595083446564 l 1.4200916146186253 -0.3425501725859302" fill="#ff1402" stroke="none" /><path d="M 79.58551787078972 104.9243191809786 l -1.1463694266359188 0.2765237403692627 a22.179249015820396,22.179249015820396 0 0,0 -0.08632948869706908,-0.37190517785434046 l 1.150959481263543 -0.256749905166348" fill="#ff1001" stroke="none" /><path d="M 79.50377843672027 104.57218783832718 l -0.5071233843595296 0.11312638104254254 a21.519588014730946,21.519588014730946 0 0,0 -0.07753811016136289,-0.36223223690785433 l 0.5089955332453332 -0.10438032471852443" fill="#ff0701" stroke="none" /><path d="M 79.4281124754447 104.21870165774334 l -0.9259230803230394 0.1898801570463121 a21.945192057052342,21.945192057052342 0 0,0 -0.07270135629861922,-0.3707026494807938 l 0.9290543695973251 -0.17391378049756345" fill="#ff0d01" stroke="none" /><path d="M 79.35854240842038 103.8639653848113 l -1.3891621722969136 0.26004338714113884 a22.413291938750277,22.413291938750277 0 0,0 -0.06772395773352798,-0.37983192073064953 l 1.3934325723696304 -0.23609271567727563" fill="#ff1402" stroke="none" /><path d="M 79.29508885075956 103.50808413554451 l -1.13805027491337 0.1928226634781827 a22.154269902484344,22.154269902484344 0 0,0 -0.060468756391279084,-0.37653900377043636 l 1.1412007856659399 -0.17320443001453262" fill="#ff1001" stroke="none" /><path d="M 79.23777060512086 103.15116336523772 l -18.225991227377627 2.766228749260518 a39.434716643162204,39.434716643162204 0 0,0 -0.09608165237804339,-0.6719948529488311 l 18.270906930772266 -2.452088424331286" fill="#fff316" stroke="none" /><path d="M 79.18660465613746 102.79330883721812 l -3.4137972910703756 0.4581563932301937 a24.444404044994887,24.444404044994887 0 0,0 -0.05237910901833384,-0.4175130351411771 l 3.4211779093355577 -0.39932560380160803" fill="#ff3004" stroke="none" /><path d="M 79.1416061653843 102.43462659150553 l -0.04672622986404362 0.005453963648869635 a21.047043450944745,21.047043450944745 0 0,0 -0.03890465652252541,-0.3602088014152548 l 0.04681318788762092 -0.0046488403488327695" fill="#ff0000" stroke="none" /><path d="M 79.07016306316243 101.71520430193888 l -0.17941752069588665 0.01470330152449296 a21.180018981800195,21.180018981800195 0 0,0 -0.02664995185970768,-0.36361741964035704 l 0.17964403121992967 -0.011612745387375285" fill="#ff0200" stroke="none" /><path d="M 79.0235259727143 100.99374915477108 l -2.0746310488417814 0.09828452811309443 a23.076957832331885,23.076957832331885 0 0,0 -0.015382294758829592,-0.39694867803508727 l 2.0760154764518117 -0.06255860306401037" fill="#ff1d02" stroke="none" /><line stroke="#e1ed5e" stroke-width="0.3" x1="15.007084014347285" x2="10.007500721073583" y1="101.09737516637583" y2="101.16192664675087" /><path d="M 14.007167355692545 101.11028546245083 a86.0,86.0 0 0,1 10.666146001902534,-42.60595125391555" fill="none" id="id106" stroke="none" /><text fill="#e1ed5e" style="font-size:6.75px; font-family:Arial;" text-anchor="middle"><textPath startOffset="22.20632615414155" xlink:href="#id106">October</textPath></text><path d="M 79.00175016825051 100.2711162175752 l -2.5732049921255973 0.0332236072101539 a23.57341946436568,23.57341946436568 0 0,0 -0.001746344407447434,-0.4057889382236755 l 2.573395633822548 0.011074809217196972" fill="#ff2403" stroke="none" /><path d="M 79.00019446554 99.90962569577889 l -0.18922006078535966 -0.000814323318856138 a21.189221813029267,21.189221813029267 0 0,0 0.0047090451134549505,-0.3647207335868681 l 0.18917800855418915 0.004071314966196164" fill="#ff0200" stroke="none" /><path d="M 79.01574976396665 99.18683210126434 l -62.62296888481131 -2.426724207339428 a83.66997065841448,83.66997065841448 0 0,0 0.06815672843688086,-1.4386808149491517 l 62.57191854814093 3.5043161289115887" fill="#4dd5ff" stroke="none" /><path d="M 79.05617556472873 98.46500227214037 l -2.1468573738712835 -0.1573457226551869 a23.15261567869961,23.15261567869961 0 0,0 0.032552044230591,-0.397217390917736 l 2.1438308458211957 0.1942770307807013" fill="#ff1e03" stroke="none" /><path d="M 79.21141760316559 97.0276538004421 l -0.6655805179228476 -0.0951645323949077 a21.672349398798264,21.672349398798264 0 0,0 0.055980820486147026,-0.36884366246091477 l 0.6638438039973983 0.1066073072479145" fill="#ff0901" stroke="none" /><path d="M 79.26566170972629 96.67025291283419 l -1.2096705211129775 -0.19426213837727024 a22.22516959971126,22.22516959971126 0 0,0 0.06391126759637586,-0.37720791916324353 l 1.2061473919963785 0.21505584585634174" fill="#ff1101" stroke="none" /><path d="M 79.46518482838121 95.60439243477599 l -7.700019273691524 -1.648238013780037 a28.874451432658056,28.874451432658056 0 0,0 0.10821816190415459,-0.48512080036720084 l 7.670506724785332 1.7805369836971972" fill="#ff6d0a" stroke="none" /><path d="M 79.54389044137918 95.25157060432595 l -1.6660173220622043 -0.38672874737554414 a22.710313667564513,22.710313667564513 0 0,0 0.0916709378475233,-0.3800352198299818 l 1.6591135839538662 0.4153491988649228" fill="#ff1802" stroke="none" /><path d="M 79.71946130924805 94.55025226153421 l -0.5016874938429333 -0.13481250802444647 a21.519485085251006,21.519485085251006 0 0,0 0.09920813556438968,-0.3569044481636942 l 0.49929258771218293 0.14342825960708325" fill="#ff0701" stroke="none" /><path d="M 79.81627453868168 94.20196356495316 l -0.500942896443657 -0.14390233215491396 a21.521202136120895,21.521202136120895 0 0,0 0.1053453650790554,-0.3551722010603385 l 0.4983916342528947 0.1525039199617917" fill="#ff0701" stroke="none" /><path d="M 79.91906864156998 93.8553929516997 l -0.944443668958888 -0.28899233414147263 a21.987669181977985,21.987669181977985 0 0,0 0.11385897372661757,-0.36096406148371263 l 0.9393292114640666 0.30520656205159974" fill="#ff0d01" stroke="none" /><path d="M 80.02781315780177 93.51064311812611 l -0.4952833223537969 -0.1609273066484202 a21.520771703750242,21.520771703750242 0 0,0 0.1175061868415175,-0.3513285421863707 l 0.49243984174050703 0.16942895175711312" fill="#ff0701" stroke="none" /><path d="M 80.14247586403 93.16781622104843 l -3.320426350256599 -1.1424265630544252 a24.511462601175,24.511462601175 0 0,0 0.140703871496058,-0.3977887921064664 l 3.3002693979507316 1.1994129815875025" fill="#ff3104" stroke="none" /><path d="M 80.2630227832202 92.82701384747504 l -0.5783710742095414 -0.21019671152069655 a21.615382610264877,21.615382610264877 0 0,0 0.13009929427234249,-0.34860142735023975 l 0.5746671914355713 0.2201212759002777" fill="#ff0801" stroke="none" /><path d="M 80.65960295795068 91.81776055985345 l -1.1096196836519345 -0.4694409281981189 a22.20483634881063,22.20483634881063 0 0,0 0.15195434617842934,-0.3507315814864314 l 1.1013746276308245 0.4884716542711496" fill="#ff1101" stroke="none" /><path d="M 80.803312248108 91.48605970444005 l -0.9477458687028708 -0.42033562486343806 a22.03677590113423,22.03677590113423 0 0,0 0.15677348862987156,-0.34542960108251564 l 0.9403700631096477 0.43658723478802464" fill="#ff0e01" stroke="none" /><path d="M 80.95270993114464 91.15688171328213 l -1.4928824039454633 -0.6931030943785494 a22.64593127786281,22.64593127786281 0 0,0 0.16719362321216297,-0.3521524101747331 l 1.4807305868915488 0.7186979201938148" fill="#ff1702" stroke="none" /><path d="M 81.26839172434947 90.50648371742162 l -2.4347697918065037 -1.2339851614819377 a23.7296196287855,23.7296196287855 0 0,0 0.18779233033346412,-0.36275500910603414 l 2.4131680283129255 1.2757128928483072" fill="#ff2603" stroke="none" /><path d="M 81.6062741919709 89.86733742301443 l -1.2804070011470823 -0.705345520491018 a22.461832545766857,22.461832545766857 0 0,0 0.18947342847864704,-0.33705208725022257 l 1.2680759313760046 0.7272811176760251" fill="#ff1402" stroke="none" /><line stroke="#e1ed5e" stroke-width="0.3" x1="26.266209847984243" x2="21.928928074336255" y1="57.711370442889674" y2="55.22380399835377" /><path d="M 25.398753493254645 57.213857153982495 a86.0,86.0 0 0,1 29.58750427330803,-30.492523968695096" fill="none" id="id107" stroke="none" /><text fill="#e1ed5e" style="font-size:6.75px; font-family:Arial;" text-anchor="middle"><textPath startOffset="21.46611528233685" xlink:href="#id107">November</textPath></text><path d="M 81.78341655067845 89.55222093294921 l -0.4498270569050758 -0.25798985424464704 a21.51855871993156,21.51855871993156 0 0,0 0.18704784350789208,-0.31972539700430147 l 0.4453195389268587 0.2656946636028403" fill="#ff0701" stroke="none" /><path d="M 81.96595687620814 89.24020034530311 l -0.65936509377176 -0.39340242560054606 a21.76780713421603,21.76780713421603 0 0,0 0.19475366983198908,-0.3201238261742318 l 0.652495625653554 0.40469402498185236" fill="#ff0a01" stroke="none" /><path d="M 82.15384107792192 88.93136811851018 l -1.628702398426939 -1.0101617592559324 a22.916532880621855,22.916532880621855 0 0,0 0.2108019877265789,-0.33343812037659676 l 1.6110728144543975 1.0380475273467449" fill="#ff1b02" stroke="none" /><path d="M 82.34701348167596 88.62581576622439 l -0.9697341834707112 -0.6248197861102197 a22.153596182252016,22.153596182252016 0 0,0 0.20930228673717774,-0.31878174210523236 l 0.9588352613756131 0.6414195921931191" fill="#ff1001" stroke="none" /><path d="M 82.54541684631803 88.32363383020206 l -1.410922929469135 -0.9438468175832889 a22.69751298315031,22.69751298315031 0 0,0 0.2200313492159775,-0.322868854532003 l 1.3944671145844172 0.9679936953857077" fill="#ff1802" stroke="none" /><path d="M 82.7489923806493 88.02491185347247 l -0.4271791182080421 -0.296533843574393 a21.520013768488877,21.520013768488877 0 0,0 0.2138550140538292,-0.30248275128347657 l 0.42201148435033464 0.30384309518965574" fill="#ff0701" stroke="none" /><path d="M 82.95767976084542 87.72973835380427 l -0.5749041260934232 -0.41392392289617874 a21.708412145678633,21.708412145678633 0 0,0 0.22094758564260292,-0.30137225851062205 l 0.567693927937187 0.4237586250783015" fill="#ff0901" stroke="none" /><path d="M 83.17141714833178 87.43820079747576 l -0.4168275278693973 -0.31114347258663483 a21.520149448257886,21.520149448257886 0 0,0 0.22414164068127948,-0.29494412554876887 l 0.41140994696400895 0.31827237401643027" fill="#ff0701" stroke="none" /><path d="M 83.39014120810768 87.1503855733568 l -0.6089589558213758 -0.47109899500021346 a21.769912509942053,21.769912509942053 0 0,0 0.23184533803213342,-0.2944200350381067 l 0.6007595371952713 0.48151142399136787" fill="#ff0a01" stroke="none" /><path d="M 83.6137871275137 86.86637796730984 l -0.756334207088177 -0.6062052094397892 a21.96929159119619,21.96929159119619 0 0,0 0.23904839317151233,-0.29304506462809987 l 0.7457873218402722 0.6191344436759713" fill="#ff0d01" stroke="none" /><path d="M 83.84228863543731 86.58626213691792 l -2.520590157605142 -2.092532467719026 a24.2759833441387,24.2759833441387 0 0,0 0.26968234577861466,-0.3192188352112642 l 2.484197198339403 2.135610252559406" fill="#ff2e04" stroke="none" /><path d="M 84.07557802195018 86.31012108654704 l -0.5370085582662283 -0.46165456732344934 a21.708168857816958,21.708168857816958 0 0,0 0.24603432452316698,-0.28125976426341515 l 0.5289823701652178 0.47082988778980767" fill="#ff0901" stroke="none" /><path d="M 84.31358615837235 86.03803664274999 l -0.5256972646377424 -0.46790592292043814 a21.703770961855938,21.703770961855938 0 0,0 0.25078847840510293,-0.2769269016652022 l 0.5175651456165944 0.47688561185519635" fill="#ff0901" stroke="none" /><path d="M 84.5562425177563 85.77008943001954 l -0.4137582780281779 -0.38123774610547045 a21.56261721595808,21.56261721595808 0 0,0 0.25385636188701277,-0.2707962672380962 l 0.4071345941707092 0.3883034302216168" fill="#ff0701" stroke="none" /><path d="M 84.80347519578584 85.50635884689758 l -1.1285353973732706 -1.0763373395452993 a22.55951730084148,22.55951730084148 0 0,0 0.2704303189633128,-0.2787022151878435 l 1.1098408147068393 1.0956037502832665" fill="#ff1602" stroke="none" /><path d="M 85.05521093208273 85.24692304244772 l -1.3428371652540625 -1.3256112180923159 a22.886917262075833,22.886917262075833 0 0,0 0.2791813736703125,-0.27798248012822385 l 1.3198199914164368 1.348529548870649" fill="#ff1a02" stroke="none" /><path d="M 85.31137513191541 84.99185889309783 l -1.7796840266893272 -1.8183968368807737 a23.544374636572048,23.544374636572048 0 0,0 0.29208114816636094,-0.2809818331204458 l 1.7481196349105388 1.848761756763533" fill="#ff2403" stroke="none" /><path d="M 85.57189188830299 84.74124197986013 l -3.222232797370914 -3.4077420379031356 a25.68993496728313,25.68993496728313 0 0,0 0.3239282021504487,-0.3010559609280442 l 3.1630967114256094 3.4627025849058275" fill="#ff4106" stroke="none" /><path d="M 86.10567301691215 84.25364557470407 l -0.47139382593301266 -0.5342276935091869 a21.712468502910767,21.712468502910767 0 0,0 0.2823718949919779,-0.24487012479818332 l 0.46212813229426125 0.5422628117270507" fill="#ff0a01" stroke="none" /><path d="M 86.37877921826538 84.01681056812374 l -0.4624953293629068 -0.5426936820874271 a21.71303461505043,21.71303461505043 0 0,0 0.2865525663479605,-0.23997953350577586 l 0.45308522605583595 0.5505743729870154" fill="#ff0a01" stroke="none" /><path d="M 86.65592168130627 83.78471172551755 l -0.7260369446876115 -0.8822563893035179 a22.142587406511293,22.142587406511293 0 0,0 0.29639076509327694,-0.23966071944266584 l 0.710742781029834 0.8946232060103181" fill="#ff1001" stroke="none" /><path d="M 86.93701828274178 83.55741782278169 l -1.0062184165543342 -1.2665430726712905 a22.617592920590575,22.617592920590575 0 0,0 0.3069179839535695,-0.23955435472815295 l 0.984267877441339 1.2836758166226652" fill="#ff1602" stroke="none" /><path d="M 87.22198572758235 83.33499621200491 l -1.1774023573175925 -1.535560559440475 a22.934999365045417,22.934999365045417 0 0,0 0.3153604419145595,-0.23752294674243535 l 1.1507957616446431 1.5556000956887648" fill="#ff1b02" stroke="none" /><path d="M 87.51073957382395 83.11751280151077 l -0.04595570137946075 -0.06212109554623873 a21.077271967757675,21.077271967757675 0 0,0 0.29353080502170836,-0.2132626131279213 l 0.04487958000397068 0.0629029434908279" fill="#ff0000" stroke="none" /><path d="M 87.80319425747018 82.90503203632743 l -0.6372025377228815 -0.8930991604433093 a22.09711129082925,22.09711129082925 0 0,0 0.31153650277946904,-0.21825122918333373 l 0.6217348953597522 0.9039352323905856" fill="#ff0f01" stroke="none" /><path d="M 88.09926311788651 82.69761687909137 l -1.1905615417721764 -1.730947598356071 a23.100860864741307,23.100860864741307 0 0,0 0.3295671176306754,-0.22252518898014842 l 1.1605897297349614 1.7511846996348848" fill="#ff1d03" stroke="none" /><path d="M 88.39885842347998 82.49532879139004 l -1.1013706668830954 -1.6618305427472595 a22.993664489997794,22.993664489997794 0 0,0 0.3318018351677264,-0.2158131432615839 l 1.072601805931082 1.6805426101683785" fill="#ff1c02" stroke="none" /><path d="M 88.70189139769569 82.29822771554957 l -0.035725453522997226 -0.055974310858884095 a21.066403550398686,21.066403550398686 0 0,0 0.3073496464875978,-0.19246232043422387 l 0.03475665466315713 0.056580972616038186" fill="#ff0000" stroke="none" /><path d="M 89.00827224532344 82.1063720568725 l -1.3590114001198697 -2.2123586852728865 a23.59642888174472,23.59642888174472 0 0,0 0.3479214039802677,-0.20961875297895427 l 1.3207279299219528 2.23542404771046" fill="#ff2403" stroke="none" /><line stroke="#e1ed5e" stroke-width="0.3" x1="56.762969772571076" x2="54.21961505331055" y1="26.818313649435495" y2="22.513508569990535" /><path d="M 56.25429882871897 25.957352633546506 a86.0,86.0 0 0,1 42.265352541879196,-11.944610805530505" fill="none" id="id108" stroke="none" /><text fill="#e1ed5e" style="font-size:6.75px; font-family:Arial;" text-anchor="middle"><textPath startOffset="22.20632615414155" xlink:href="#id108">December</textPath></text><path d="M 89.3179101791058 81.91981866633112 l -0.36405413914235013 -0.6161869972382813 a21.715696745690664,21.715696745690664 0 0,0 0.32346385232591685,-0.18737114141417285 l 0.35339355435111314 0.6223622960425014" fill="#ff0a01" stroke="none" /><path d="M 89.63071344664047 81.73862282372117 l -1.6870215244562243 -2.9710179388006983 a24.41657565650962,24.41657565650962 0 0,0 0.36726705129720444,-0.20438371641529615 l 1.6356303840869744 2.9996170527761787" fill="#ff3004" stroke="none" /><path d="M 89.94658935756843 81.56283822128135 l -0.42770072380698154 -0.7843693765399729 a21.893399814192236,21.893399814192236 0 0,0 0.3324199513853083,-0.17756722559807542 l 0.4141357258933679 0.7916153286397978" fill="#ff0c01" stroke="none" /></svg>